<svg width="24" height="24" viewBox="0 0 24 24" fill="none" xmlns="http://www.w3.org/2000/svg">
<path d="M14.8569 17.0817C16.7515 16.857 18.5784 16.4116 20.3112 15.7719C18.8744 14.177 17.9999 12.0656 17.9999 9.75V9.04919C18 9.03281 18.0001 9.01641 18.0001 9C18.0001 5.68629 15.3138 3 12.0001 3C8.68637 3 6.00007 5.68629 6.00007 9L5.99988 9.75C5.99988 12.0656 5.12535 14.177 3.68855 15.7719C5.42148 16.4116 7.24851 16.857 9.14321 17.0818M14.8569 17.0817C13.9201 17.1928 12.9666 17.25 11.9999 17.25C11.0332 17.25 10.08 17.1929 9.14321 17.0818M14.8569 17.0817C14.9499 17.3711 15.0001 17.6797 15.0001 18C15.0001 19.6569 13.6569 21 12.0001 21C10.3432 21 9.00007 19.6569 9.00007 18C9.00007 17.6797 9.05026 17.3712 9.14321 17.0818M3.12451 7.5C3.41179 5.78764 4.18261 4.23924 5.29175 3M18.7084 3C19.8175 4.23924 20.5884 5.78764 20.8756 7.5" stroke="#0F172A" stroke-width="1.5" stroke-linecap="round" stroke-linejoin="round"/>
</svg>
