<svg width="24" height="24" viewBox="0 0 24 24" fill="none" xmlns="http://www.w3.org/2000/svg">
<path d="M6.75013 3.74429H5.99683V11.995H13.1218C15.4 11.995 17.2468 10.148 17.2468 7.86965C17.2468 5.59128 15.4 3.74429 13.1218 3.74429H6.75013ZM6.75013 3.74429V4.12506M6.75013 20.2457H13.4968C15.9821 20.2457 17.9968 18.2308 17.9968 15.7453C17.9968 13.2598 15.9821 11.2449 13.4968 11.2449H5.99683V20.2457H6.75013ZM6.75013 20.2457V19.8753M6.75013 4.12506H12.7502C14.8213 4.12506 16.5002 5.80402 16.5002 7.87512C16.5002 9.94621 14.8213 11.6252 12.7502 11.6252H6.75013M6.75013 4.12506V11.6252M6.75013 11.6252V19.8753M6.75013 11.6252H13.1252C15.4034 11.6252 17.2502 13.472 17.2502 15.7502C17.2502 18.0284 15.4034 19.8753 13.1252 19.8753H6.75013M7.49683 4.49436H12.3718C14.2358 4.49436 15.7468 6.00553 15.7468 7.86965C15.7468 9.73377 14.2358 11.2449 12.3718 11.2449H7.49683V4.49436ZM7.49683 11.995H12.7468C14.8179 11.995 16.4968 13.6741 16.4968 15.7453C16.4968 17.8166 14.8179 19.4957 12.7468 19.4957H7.49683V11.995Z" stroke="black" stroke-width="1.5" stroke-linejoin="round"/>
</svg>
