<svg width="24" height="24" viewBox="0 0 24 24" fill="none" xmlns="http://www.w3.org/2000/svg">
<path d="M21.75 19.5005H16.5V17.891C16.5 17.0387 16.9815 16.2596 17.7438 15.8785L20.6333 14.4337C21.2849 14.1079 21.75 13.4788 21.75 12.7503C21.75 12.2521 21.7095 11.7633 21.6317 11.2871C21.4969 10.4626 20.7971 9.86539 19.9643 9.79867C19.5638 9.76659 19.1588 9.75023 18.75 9.75023C17.9853 9.75023 17.2339 9.80746 16.5 9.91786M2.24304 4.49278V11.9935M2.24304 11.9935V19.4942M2.24304 11.9935L12.7433 11.9942M12.7433 4.49351V11.9942M12.7433 11.9942V19.495" stroke="black" stroke-width="1.5" stroke-linecap="round" stroke-linejoin="round"/>
</svg>
