<svg width="24" height="24" viewBox="0 0 24 24" fill="none" xmlns="http://www.w3.org/2000/svg">
<path d="M20.9055 14.6254C21.437 15.3642 21.75 16.2708 21.75 17.2504C21.75 17.5862 21.7132 17.9135 21.6435 18.2283C21.4894 18.9237 20.8486 19.3718 20.1393 19.437C19.6818 19.479 19.2184 19.5005 18.75 19.5005C17.9853 19.5005 17.2339 19.4432 16.5 19.3328M20.9055 14.6254C21.437 13.8865 21.75 12.9799 21.75 12.0003C21.75 11.6645 21.7132 11.3372 21.6435 11.0224C21.4894 10.327 20.8486 9.87886 20.1393 9.81372C19.6818 9.77171 19.2184 9.75023 18.75 9.75023C17.9853 9.75023 17.2339 9.80746 16.5 9.91786M20.9055 14.6254H18M2.24268 4.49278V11.9935M2.24268 11.9935V19.4942M2.24268 11.9935L12.7429 11.9942M12.7429 4.49351V11.9942M12.7429 11.9942V19.495" stroke="black" stroke-width="1.5" stroke-linecap="round" stroke-linejoin="round"/>
</svg>
