<svg width="24" height="24" viewBox="0 0 24 24" fill="none" xmlns="http://www.w3.org/2000/svg">
<path d="M13.1811 8.68074C13.6301 8.89526 14.0509 9.18848 14.4228 9.56042C15.9218 11.0596 16.1422 13.3533 15.0839 15.086M5.31602 12.3037L3.55908 14.0609C1.80176 15.8184 1.80176 18.6679 3.55908 20.4254C5.31641 22.183 8.16559 22.183 9.92292 20.4254L13.0515 17.2965M18.6658 11.6816L20.4227 9.92442C22.18 8.16689 22.18 5.31737 20.4227 3.55985C18.6654 1.80232 15.8162 1.80232 14.0589 3.55985L9.55897 8.06028C9.30062 8.31865 9.08026 8.60062 8.89788 8.89926M10.8007 15.3045C10.3517 15.09 9.93086 14.7968 9.55897 14.4249C9.06728 13.9331 8.71316 13.3559 8.49662 12.741M15.0839 15.086L20.9907 20.9935M15.0839 15.086L8.89788 8.89926M2.99107 2.99177L8.89788 8.89926" stroke="black" stroke-width="1.5" stroke-linecap="round" stroke-linejoin="round"/>
</svg>
