<svg width="24" height="25" viewBox="0 0 24 25" fill="none" xmlns="http://www.w3.org/2000/svg">
<path d="M11.1407 20.5552C11.8588 21.3509 12.4993 20.9627 12.8292 20.5552C13.9937 19.3907 15.9539 17.4434 16.7884 16.6153C16.7884 16.6153 17.2736 15.9748 16.6914 15.412C16.1091 14.8492 15.4687 15.2956 15.4687 15.2956L12.9262 17.838L12.9262 11.4916C13.088 9.33083 14.7817 4.97825 20.2625 4.85404C20.2625 4.85404 21 4.67936 21 3.96127C21 3.24317 20.2625 3.01027 20.2625 3.01027C18.4187 2.89382 14.1839 3.72449 11.9946 7.97873C10.7331 5.70799 8.11301 3.01027 3.7268 3.01027C2.40705 3.61192 3.18337 4.86377 3.7268 4.85404C5.89403 4.81522 10.3954 6.08839 11.063 11.4916L11.063 17.838L8.54003 15.2956C7.20088 14.6939 6.73504 16.0137 7.20088 16.6153L11.1407 20.5552Z" fill="black" stroke="black"/>
</svg>
