<svg width="24" height="24" viewBox="0 0 24 24" fill="none" xmlns="http://www.w3.org/2000/svg">
<path d="M8.24197 5.99179H20.2417M8.24131 11.9945H20.2411M8.24197 17.9936H20.2417M4.11582 7.49548V3.74512H2.99084M4.11582 7.49548H2.99084M4.11582 7.49548H5.2408M3.3214 10.0715C3.76073 9.63214 4.47303 9.63214 4.91236 10.0715C5.35169 10.5109 5.35169 11.2233 4.91236 11.6627L3.08297 13.4923L5.24194 13.4925M2.99084 15.7446H4.11572C4.73709 15.7446 5.2408 16.2484 5.2408 16.8697C5.2408 17.4911 4.73709 17.9949 4.11572 17.9949H3.74083M3.74083 17.9928H4.11572C4.73709 17.9928 5.2408 18.4966 5.2408 19.1179C5.2408 19.7393 4.73709 20.243 4.11572 20.243H2.99084" stroke="black" stroke-width="1.5" stroke-linecap="round" stroke-linejoin="round"/>
</svg>
