<svg width="16" height="16" viewBox="0 0 16 16" fill="none" xmlns="http://www.w3.org/2000/svg">
<path fill-rule="evenodd" clip-rule="evenodd" d="M13.8355 2.47703C14.2497 2.47703 14.5855 2.81282 14.5855 3.22703V6.40901C14.5855 6.82322 14.2497 7.15901 13.8355 7.15901H10.6535C10.2393 7.15901 9.90349 6.82322 9.90349 6.40901C9.90349 5.9948 10.2393 5.65901 10.6535 5.65901H12.0248L11.1838 4.81802C9.42646 3.06066 6.57722 3.06066 4.81986 4.81802C4.53409 5.10379 4.29544 5.41752 4.10325 5.74996C3.89594 6.10855 3.43717 6.23119 3.07857 6.02388C2.71997 5.81656 2.59733 5.3578 2.80465 4.9992C3.06172 4.55455 3.38012 4.13644 3.7592 3.75736C6.10235 1.41421 9.90134 1.41421 12.2445 3.75736L13.0855 4.59835V3.22703C13.0855 2.81282 13.4213 2.47703 13.8355 2.47703ZM12.9249 9.97662C13.2835 10.184 13.4061 10.6427 13.1987 11.0013C12.9417 11.4458 12.6234 11.8637 12.2445 12.2426C9.90134 14.5858 6.10235 14.5858 3.7592 12.2426L2.91821 11.4017V12.773C2.91821 13.1872 2.58243 13.523 2.16821 13.523C1.754 13.523 1.41821 13.1872 1.41821 12.773L1.41821 9.59099C1.41821 9.17678 1.754 8.84099 2.16821 8.84099H5.35019C5.76441 8.84099 6.10019 9.17678 6.10019 9.59099C6.10019 10.0052 5.76441 10.341 5.35019 10.341H3.97887L4.81986 11.182C6.57722 12.9393 9.42646 12.9393 11.1838 11.182C11.4695 10.8963 11.7081 10.5827 11.9002 10.2504C12.1076 9.89186 12.5663 9.76927 12.9249 9.97662Z" fill="#0F172A"/>
</svg>
