<svg width="16" height="16" viewBox="0 0 16 16" fill="none" xmlns="http://www.w3.org/2000/svg">
<path d="M3.59948 1.69988C3.84828 1.36872 3.78152 0.89856 3.45036 0.649752C3.1192 0.400945 2.64904 0.467705 2.40024 0.798866C1.89976 1.465 1.51499 2.22396 1.2765 3.04572C1.16105 3.44352 1.38994 3.85959 1.78774 3.97504C2.18554 4.09048 2.60161 3.8616 2.71706 3.4638C2.904 2.81965 3.20585 2.22379 3.59948 1.69988Z" fill="#0F172A"/>
<path d="M13.5995 0.798866C13.3507 0.467705 12.8805 0.400945 12.5494 0.649752C12.2182 0.89856 12.1514 1.36872 12.4002 1.69988C12.7939 2.22379 13.0957 2.81965 13.2827 3.4638C13.3981 3.8616 13.8142 4.09048 14.212 3.97504C14.6098 3.85959 14.8387 3.44352 14.7232 3.04572C14.4847 2.22396 14.1 1.465 13.5995 0.798866Z" fill="#0F172A"/>
<path fill-rule="evenodd" clip-rule="evenodd" d="M7.99988 1C10.209 1 11.9999 2.79086 11.9999 5V7.37868C11.9999 7.7765 12.1579 8.15804 12.4392 8.43934L13.707 9.70711C13.8945 9.89464 13.9999 10.149 13.9999 10.4142V11C13.9999 11.5523 13.5522 12 12.9999 12H10.9999C10.9999 13.6569 9.65673 15 7.99988 15C6.34302 15 4.99988 13.6569 4.99988 12H2.99988C2.44759 12 1.99988 11.5523 1.99988 11V10.4142C1.99988 10.149 2.10523 9.89464 2.29277 9.70711L3.56054 8.43934C3.84184 8.15804 3.99988 7.7765 3.99988 7.37868V5C3.99988 2.79086 5.79074 1 7.99988 1ZM7.99988 13.5C7.17145 13.5 6.49988 12.8284 6.49988 12H9.49988C9.49988 12.8284 8.82831 13.5 7.99988 13.5Z" fill="#0F172A"/>
</svg>
