<svg width="16" height="16" viewBox="0 0 16 16" fill="none" xmlns="http://www.w3.org/2000/svg">
<path fill-rule="evenodd" clip-rule="evenodd" d="M9.58011 1.07656C9.88578 1.22638 10.0522 1.56329 9.98545 1.89709L9.16486 6.00001H13.25C13.5437 6.00001 13.8103 6.17137 13.9323 6.43848C14.0542 6.70559 14.0091 7.0193 13.8168 7.2412L7.31678 14.7412C7.09383 14.9985 6.72559 15.0733 6.41991 14.9235C6.11424 14.7736 5.94781 14.4367 6.01458 14.1029L6.83516 10H2.75001C2.45637 10 2.18974 9.82865 2.06777 9.56154C1.9458 9.29443 1.99093 8.98071 2.18324 8.75881L8.68324 1.25881C8.90619 1.00156 9.27444 0.926728 9.58011 1.07656Z" fill="#0F172A"/>
</svg>
