<svg width="16" height="16" viewBox="0 0 16 16" fill="none" xmlns="http://www.w3.org/2000/svg">
<path fill-rule="evenodd" clip-rule="evenodd" d="M4.78033 4.96967C5.07322 5.26256 5.07322 5.73743 4.78033 6.03033L2.81066 8L4.78033 9.96967C5.07322 10.2626 5.07322 10.7374 4.78033 11.0303C4.48744 11.3232 4.01256 11.3232 3.71967 11.0303L1.21967 8.53033C0.926777 8.23743 0.926777 7.76256 1.21967 7.46967L3.71967 4.96967C4.01256 4.67677 4.48744 4.67677 4.78033 4.96967Z" fill="#0F172A"/>
<path fill-rule="evenodd" clip-rule="evenodd" d="M11.2197 4.96967C10.9268 5.26256 10.9268 5.73743 11.2197 6.03033L13.1893 8L11.2197 9.96967C10.9268 10.2626 10.9268 10.7374 11.2197 11.0303C11.5126 11.3232 11.9874 11.3232 12.2803 11.0303L14.7803 8.53033C15.0732 8.23743 15.0732 7.76256 14.7803 7.46967L12.2803 4.96967C11.9874 4.67677 11.5126 4.67677 11.2197 4.96967Z" fill="#0F172A"/>
<path fill-rule="evenodd" clip-rule="evenodd" d="M8.85607 2.00753C9.26612 2.06611 9.55104 2.44601 9.49246 2.85606L7.99246 13.3561C7.93388 13.7661 7.55398 14.051 7.14393 13.9925C6.73388 13.9339 6.44896 13.554 6.50754 13.1439L8.00754 2.64393C8.06612 2.23388 8.44602 1.94896 8.85607 2.00753Z" fill="#0F172A"/>
</svg>
