<svg width="16" height="16" viewBox="0 0 16 16" fill="none" xmlns="http://www.w3.org/2000/svg">
<path fill-rule="evenodd" clip-rule="evenodd" d="M6.45494 1.45025C6.4805 1.19465 6.69558 1 6.95246 1H9.04747C9.30435 1 9.51943 1.19465 9.54499 1.45025L9.73073 3.30766C10.2693 3.50637 10.7642 3.79513 11.1972 4.15568L12.9 3.38721C13.1342 3.28155 13.4103 3.37049 13.5387 3.59295L14.5862 5.40728C14.7147 5.62975 14.6536 5.91334 14.4451 6.06327L12.9286 7.15339C12.9755 7.42858 13 7.71143 13 8C13 8.28864 12.9755 8.57157 12.9286 8.84682L14.4451 9.93696C14.6536 10.0869 14.7147 10.3705 14.5862 10.5929L13.5387 12.4073C13.4103 12.6297 13.1342 12.7187 12.9 12.613L11.197 11.8445C10.764 12.205 10.2692 12.4937 9.73073 12.6923L9.54499 14.5498C9.51943 14.8054 9.30435 15 9.04747 15H6.95246C6.69558 15 6.4805 14.8054 6.45494 14.5498L6.2692 12.6923C5.73067 12.4936 5.23575 12.2049 4.80271 11.8443L3.0999 12.6128C2.86577 12.7185 2.58966 12.6295 2.46122 12.4071L1.41371 10.5927C1.28527 10.3703 1.3463 10.0867 1.55488 9.93673L3.07134 8.84661C3.02441 8.57142 2.99996 8.28857 2.99996 8C2.99996 7.71136 3.02442 7.42843 3.07138 7.15318L1.55488 6.06304C1.3463 5.9131 1.28527 5.62951 1.41371 5.40705L2.46122 3.59272C2.58966 3.37025 2.86577 3.28131 3.0999 3.38698L4.80289 4.15552C5.23589 3.79505 5.73075 3.50634 6.2692 3.30766L6.45494 1.45025ZM6.27747 9.01699L6.25611 8.98C6.09301 8.69039 5.99996 8.35606 5.99996 8C5.99996 6.89543 6.8954 6 7.99996 6C8.73323 6 9.37433 6.39461 9.72249 6.98306L9.74379 7.01995C9.90691 7.30957 9.99996 7.64392 9.99996 8C9.99996 9.10457 9.10453 10 7.99996 10C7.26672 10 6.62563 9.60541 6.27747 9.01699Z" fill="#0F172A"/>
</svg>
