<svg width="16" height="16" viewBox="0 0 16 16" fill="none" xmlns="http://www.w3.org/2000/svg">
<path d="M4.93485 4.03616C4.71733 4.09006 4.51866 4.20228 4.36024 4.36072C4.19098 4.53008 4.0748 4.7451 4.02592 4.97945C3.97704 5.21381 3.99759 5.45732 4.08505 5.68018L6.26131 11.219C6.35461 11.4565 6.51949 11.6593 6.73313 11.799C6.94676 11.9388 7.19857 12.0087 7.45371 11.9991C7.70885 11.9895 7.9547 11.9009 8.15722 11.7454C8.35973 11.59 8.50891 11.3755 8.58408 11.1316L9.18371 9.18254L11.1334 8.58312C11.3769 8.50745 11.5909 8.35814 11.746 8.15578C11.901 7.95342 11.9895 7.70798 11.9991 7.45326C12.0088 7.19855 11.9392 6.94711 11.7999 6.7336C11.6606 6.52009 11.4585 6.35502 11.2214 6.26114L5.68077 4.08563L5.59458 4.05486C5.38047 3.98872 5.15236 3.98226 4.93485 4.03616Z" stroke="black" stroke-miterlimit="4.13936"/>
</svg>
