<svg width="16" height="16" viewBox="0 0 16 16" fill="none" xmlns="http://www.w3.org/2000/svg">
<path d="M5.27344 5.12305L10.792 7.29004L10.835 7.31055C10.8508 7.32093 10.8639 7.33492 10.873 7.35156C10.8815 7.36698 10.8859 7.38392 10.8867 7.40137L10.8828 7.43066C10.8786 7.45038 10.87 7.46934 10.8564 7.48438C10.8425 7.49967 10.8245 7.51049 10.8047 7.5166L8.54395 8.21191L8.29102 8.29004L8.21289 8.54297L7.52246 10.7861L7.50684 10.8262C7.49773 10.8421 7.48523 10.8561 7.46973 10.8662C7.45442 10.8761 7.43702 10.8809 7.41895 10.8828L7.38672 10.8818C7.36861 10.8785 7.35153 10.8716 7.33691 10.8604C7.32869 10.854 7.32063 10.8471 7.31445 10.8389L7.2998 10.8115L5.12305 5.27246C5.1159 5.25427 5.11365 5.23421 5.11621 5.21484C5.11862 5.19714 5.12569 5.18077 5.13574 5.16602L5.15234 5.14648C5.16765 5.13225 5.18649 5.12252 5.20703 5.11816C5.2291 5.11356 5.25246 5.11482 5.27344 5.12305Z" stroke="black"/>
</svg>