<svg width="16" height="16" viewBox="0 0 16 16" fill="none" xmlns="http://www.w3.org/2000/svg">
<path fill-rule="evenodd" clip-rule="evenodd" d="M6.70087 2.25C7.27822 1.25 8.72159 1.25 9.29894 2.25L14.4951 11.25C15.0724 12.25 14.3508 13.5 13.1961 13.5H2.80375C1.64905 13.5 0.927363 12.25 1.50471 11.25L6.70087 2.25ZM7.9999 4C8.41412 4 8.7499 4.33579 8.7499 4.75V7.75C8.7499 8.16421 8.41412 8.5 7.9999 8.5C7.58569 8.5 7.2499 8.16421 7.2499 7.75V4.75C7.2499 4.33579 7.58569 4 7.9999 4ZM7.9999 12C8.55219 12 8.9999 11.5523 8.9999 11C8.9999 10.4477 8.55219 10 7.9999 10C7.44762 10 6.9999 10.4477 6.9999 11C6.9999 11.5523 7.44762 12 7.9999 12Z" fill="#0F172A"/>
</svg>
