<svg width="16" height="16" viewBox="0 0 16 16" fill="none" xmlns="http://www.w3.org/2000/svg">
<path fill-rule="evenodd" clip-rule="evenodd" d="M8.07402 0.944724C6.81757 1.85295 6 3.33082 6 4.99964L6.0001 5.03197C6.00387 5.63258 6.11354 6.20806 6.31136 6.74069C6.4705 7.16914 6.10663 7.65161 5.70092 7.44116C4.94479 7.04894 4.30153 6.4693 3.83266 5.76375C3.63093 5.46017 3.18469 5.40114 2.98487 5.70598C2.92216 5.80164 2.86179 5.89964 2.80387 5.99995C1.14702 8.86971 2.13027 12.5392 5.00003 14.1961C7.86978 15.853 11.5393 14.8697 13.1962 12C14.8527 9.13083 13.8702 5.46225 11.0019 3.80488L10.9981 3.79835C9.9539 3.19488 9.20965 2.27153 8.81771 1.22361C8.70214 0.914615 8.34139 0.751462 8.07402 0.944724ZM8.8536 7.12287C10.0946 7.49054 11 8.63938 11 9.99969C11 10.9621 10.5468 11.8187 9.84219 12.3676C9.3338 12.7636 8.69401 12.9995 7.99968 12.9995C6.87478 12.9995 5.89449 12.3804 5.38097 11.4643C5.17594 11.0986 5.59569 10.7698 6.00184 10.8741C6.32081 10.956 6.65515 10.9995 6.99968 10.9995C7.30017 10.9995 7.59292 10.9664 7.87449 10.9036C8.16227 10.8394 8.28666 10.5181 8.19544 10.2377C8.06858 9.84773 8 9.43146 8 8.99917C8 8.41415 8.12559 7.85847 8.35128 7.35761C8.43815 7.16481 8.65084 7.0628 8.8536 7.12287Z" fill="#0F172A"/>
</svg>
