<svg width="16" height="16" viewBox="0 0 16 16" fill="none" xmlns="http://www.w3.org/2000/svg">
<path d="M2.00013 6.34163C2.01803 4.49304 3.52214 3 5.37497 3C6.43519 3 7.38123 3.48888 7.99997 4.2535C8.6187 3.48888 9.56474 3 10.625 3C12.4889 3 14 4.51104 14 6.375C14 6.42155 13.999 6.46792 13.9971 6.51409C13.9334 8.64751 12.3784 10.2732 11.0417 11.298C10.3523 11.8264 9.67045 12.234 9.16286 12.5091C8.9082 12.6471 8.69524 12.7529 8.54426 12.825C8.46872 12.861 8.40855 12.8887 8.36626 12.9078C8.34511 12.9173 8.32842 12.9247 8.3165 12.93L8.30224 12.9362L8.29787 12.9381L8.29638 12.9387C8.11012 13.02 7.89012 13.02 7.70417 12.939L7.70209 12.9381L7.69764 12.9362L7.68312 12.9298C7.67099 12.9245 7.65398 12.9169 7.63244 12.9072C7.58935 12.8878 7.52804 12.8596 7.45109 12.8228C7.29731 12.7494 7.08047 12.6415 6.82149 12.5008C6.30533 12.2203 5.61277 11.8047 4.91586 11.2659C3.56382 10.2205 1.99923 8.55828 1.99915 6.38003C1.99915 6.36719 1.99947 6.35439 2.00013 6.34163Z" fill="#0F172A"/>
</svg>
