<svg width="16" height="16" viewBox="0 0 16 16" fill="none" xmlns="http://www.w3.org/2000/svg">
<path fill-rule="evenodd" clip-rule="evenodd" d="M8.91427 6.02513C9.20716 5.73223 9.68203 5.73223 9.97493 6.02513C11.3418 7.39196 11.3418 9.60804 9.97493 10.9749L7.97493 12.9749C6.60809 14.3417 4.39201 14.3417 3.02518 12.9749C1.8283 11.778 1.68001 9.93153 2.57787 8.57265C2.80621 8.22706 3.27148 8.13202 3.61707 8.36036C3.96266 8.5887 4.05771 9.05397 3.82936 9.39956C3.31657 10.1757 3.40288 11.2313 4.08584 11.9142C4.86689 12.6953 6.13322 12.6953 6.91427 11.9142L8.91427 9.91421C9.69531 9.13316 9.69531 7.86683 8.91427 7.08579C8.62137 6.79289 8.62137 6.31802 8.91427 6.02513Z" fill="#0F172A"/>
<path fill-rule="evenodd" clip-rule="evenodd" d="M7.08584 9.97487C6.79295 10.2678 6.31807 10.2678 6.02518 9.97487C4.65835 8.60804 4.65835 6.39196 6.02518 5.02513L8.02518 3.02513C9.39202 1.65829 11.6081 1.65829 12.9749 3.02513C14.1718 4.22201 14.3201 6.06847 13.4222 7.42735C13.1939 7.77294 12.7286 7.86798 12.383 7.63964C12.0374 7.4113 11.9424 6.94603 12.1707 6.60044C12.6835 5.82435 12.5972 4.76874 11.9143 4.08579C11.1332 3.30474 9.86689 3.30474 9.08584 4.08579L7.08584 6.08579C6.30479 6.86683 6.30479 8.13316 7.08584 8.91421C7.37873 9.20711 7.37873 9.68198 7.08584 9.97487Z" fill="#0F172A"/>
</svg>
