<svg width="16" height="17" viewBox="0 0 16 17" fill="none" xmlns="http://www.w3.org/2000/svg">
<path d="M7.33166 14.654C7.89019 15.2729 8.38832 14.971 8.64494 14.654C9.55065 13.7483 11.0753 12.2338 11.7243 11.5897C11.7243 11.5897 12.1017 11.0915 11.6488 10.6538C11.196 10.216 10.6979 10.5632 10.6979 10.5632L8.72042 12.5407V7.60457C8.84621 5.92397 10.1635 2.53864 14.4264 2.44203C14.4264 2.44203 15 2.30617 15 1.74765C15 1.18913 14.4264 1.00799 14.4264 1.00799C12.9923 0.917417 9.69855 1.56349 7.99582 4.87235C7.01463 3.10621 4.97679 1.00799 1.56528 1.00799C0.538814 1.47594 1.14262 2.4496 1.56528 2.44203C3.25091 2.41184 6.75198 3.40208 7.27125 7.60457L7.27125 12.5407L5.30891 10.5632C4.26735 10.0953 3.90503 11.1217 4.26735 11.5897L7.33166 14.654Z" fill="black" stroke="black"/>
</svg>
