<svg width="16" height="16" viewBox="0 0 16 16" fill="none" xmlns="http://www.w3.org/2000/svg">
<path d="M1 4.80424C1 4.01881 1.86395 3.53996 2.53 3.95624L7.6432 7.152C8.26987 7.54366 8.26987 8.45633 7.6432 8.84799L2.53 12.0437C1.86395 12.46 1 11.9812 1 11.1957V4.80424Z" fill="#0F172A"/>
<path d="M13.5 4.49999C13.5 4.22385 13.7239 3.99999 14 3.99999H14.5C14.7761 3.99999 15 4.22385 15 4.49999V11.5C15 11.7761 14.7761 12 14.5 12H14C13.7239 12 13.5 11.7761 13.5 11.5V4.49999Z" fill="#0F172A"/>
<path d="M10.5 3.99999C10.2239 3.99999 10 4.22385 10 4.49999V11.5C10 11.7761 10.2239 12 10.5 12H11C11.2761 12 11.5 11.7761 11.5 11.5V4.49999C11.5 4.22385 11.2761 3.99999 11 3.99999H10.5Z" fill="#0F172A"/>
</svg>
