<svg width="16" height="16" viewBox="0 0 16 16" fill="none" xmlns="http://www.w3.org/2000/svg">
<path fill-rule="evenodd" clip-rule="evenodd" d="M2.24907 6.66511C3.21872 7.22494 4.40749 7.06138 5.19051 6.34189L5.54878 6.54874C5.88961 6.74552 6.32588 6.56946 6.5193 6.22671C6.70926 5.89008 6.63407 5.44328 6.29933 5.25002L5.94017 5.04266C6.17108 4.00517 5.71831 2.89458 4.74907 2.33499C3.55334 1.64463 2.02437 2.05432 1.33401 3.25005C0.643655 4.44578 1.05334 5.97476 2.24907 6.66511ZM4.3651 5.00005C4.08896 5.47834 3.47737 5.64222 2.99907 5.36608C2.52078 5.08993 2.35691 4.47834 2.63305 4.00005C2.90919 3.52176 3.52078 3.35788 3.99907 3.63403C4.47737 3.91017 4.64124 4.52176 4.3651 5.00005Z" fill="#0F172A"/>
<path fill-rule="evenodd" clip-rule="evenodd" d="M8.9027 5.46458C8.03172 5.75922 7.36561 6.46967 7.12764 7.35781L6.75302 8.75589L5.19038 9.65808C4.40736 8.9387 3.21866 8.7752 2.24907 9.33499C1.05334 10.0253 0.643655 11.5543 1.33401 12.7501C2.02437 13.9458 3.55334 14.3555 4.74907 13.6651C5.71837 13.1055 6.17114 11.9948 5.94013 10.9573L14.7003 5.8996C14.963 5.74792 15.1084 5.45294 15.0688 5.15218C15.0293 4.85143 14.8124 4.60415 14.5194 4.52563L13.7383 4.31634C13.2139 4.17582 12.6596 4.19367 12.1453 4.36765L8.9027 5.46458ZM4.3651 11.0001C4.64124 11.4783 4.47737 12.0899 3.99907 12.3661C3.52078 12.6422 2.90919 12.4783 2.63305 12.0001C2.35691 11.5218 2.52078 10.9102 2.99907 10.634C3.47737 10.3579 4.08896 10.5218 4.3651 11.0001Z" fill="#0F172A"/>
<path d="M8.89243 10.4083C8.83956 10.4388 8.84545 10.5161 8.90328 10.5357L12.1459 11.6326C12.6601 11.8066 13.2144 11.8244 13.7388 11.6839L14.52 11.4746C14.813 11.3961 15.0298 11.1488 15.0694 10.848C15.109 10.5473 14.9635 10.2523 14.7008 10.1006L12.563 8.86637C12.2536 8.68774 11.8724 8.68774 11.563 8.86637L8.89243 10.4083Z" fill="#0F172A"/>
</svg>
