<svg width="16" height="16" viewBox="0 0 16 16" fill="none" xmlns="http://www.w3.org/2000/svg">
<path d="M1.75 1.00208C1.33579 1.00208 1 1.33786 1 1.75208C1 2.16629 1.33579 2.50208 1.75 2.50208H3.58486L4.82436 7.61504C3.20095 8.02719 2 9.49832 2 11.2499C2 11.6641 2.33579 11.9999 2.75 11.9999H13.25C13.6642 11.9999 14 11.6641 14 11.2499C14 10.8357 13.6642 10.4999 13.25 10.4999H3.62803C3.93691 9.62604 4.77034 8.99993 5.75 8.99993H12.25C12.598 8.99993 12.9003 8.7605 12.9801 8.42171L13.8259 4.82709C13.8722 4.63015 13.837 4.42284 13.7283 4.25223C13.6195 4.08162 13.4465 3.96217 13.2484 3.921C10.6585 3.38273 7.98556 3.0722 5.25171 3.01112L4.90365 1.57537C4.8221 1.23897 4.52091 1.00208 4.17476 1.00208H1.75Z" fill="#0F172A"/>
<path d="M5 13.9999C5 14.5522 4.55228 14.9999 4 14.9999C3.44772 14.9999 3 14.5522 3 13.9999C3 13.4477 3.44772 12.9999 4 12.9999C4.55228 12.9999 5 13.4477 5 13.9999Z" fill="#0F172A"/>
<path d="M13 13.9999C13 14.5522 12.5523 14.9999 12 14.9999C11.4477 14.9999 11 14.5522 11 13.9999C11 13.4477 11.4477 12.9999 12 12.9999C12.5523 12.9999 13 13.4477 13 13.9999Z" fill="#0F172A"/>
</svg>
