<svg width="16" height="16" viewBox="0 0 16 16" fill="none" xmlns="http://www.w3.org/2000/svg">
<g clip-path="url(#clip0_164_400)">
<path d="M7.125 1.875C7.125 1.39184 7.51602 1 8 1C11.8664 1 15 4.13359 15 8C15 9.27422 14.6582 10.4719 14.0621 11.5C13.8215 11.9184 13.2855 12.0633 12.8426 11.8199C12.4488 11.5793 12.3066 11.0434 12.5473 10.6004C12.993 9.85391 13.25 8.95703 13.25 7.97539C13.25 5.07695 10.8984 2.72539 8 2.72539C7.51602 2.72539 7.125 2.35816 7.125 1.85039V1.875Z" fill="black"/>
<path opacity="0.4" d="M7.97539 2.75C5.07695 2.75 2.72539 5.07695 2.72539 8C2.72539 10.8984 5.07695 13.25 7.97539 13.25C9.9168 13.25 11.5902 12.2246 12.509 10.6906L12.5117 10.6934C12.323 11.1008 12.4707 11.5902 12.8426 11.8199C13.2855 12.0633 13.8215 11.9184 14.0621 11.5C14.0676 11.4918 14.073 11.4836 14.0758 11.4754C12.8699 13.5809 10.6004 15 8 15C4.13359 15 1 11.8664 1 8C1 4.13359 4.13359 1 8 1C7.51602 1 7.125 1.39184 7.125 1.875C7.125 2.35816 7.51602 2.75 8 2.75H7.97539Z" fill="black"/>
</g>
<defs>
<clipPath id="clip0_164_400">
<rect width="15.75" height="14" fill="white" transform="translate(0.125 1)"/>
</clipPath>
</defs>
</svg>
