<svg width="20" height="20" viewBox="0 0 20 20" fill="none" xmlns="http://www.w3.org/2000/svg">
<path d="M16 14.5C16.4142 14.5 16.75 14.8358 16.75 15.25V16.0332C16.75 17.2178 15.6104 18.0391 14.499 17.7305C10.4429 16.6031 6.16731 16 1.75 16C1.33579 16 1 15.6642 1 15.25C1 14.8358 1.33579 14.5 1.75 14.5C6.30435 14.5 10.7147 15.1218 14.9004 16.2852C15.0861 16.3367 15.25 16.1948 15.25 16.0332V15.25C15.25 14.8358 15.5858 14.5 16 14.5ZM18 3C18.5523 3 19 3.44772 19 4V12C19 12.5523 18.5523 13 18 13H2C1.44772 13 1 12.5523 1 12V4C1 3.44772 1.44772 3 2 3H18ZM10 5C8.34315 5 7 6.34315 7 8C7 9.65685 8.34315 11 10 11C11.6569 11 13 9.65685 13 8C13 6.34315 11.6569 5 10 5ZM4 7C3.44772 7 3 7.44772 3 8C3 8.55228 3.44772 9 4 9C4.55228 9 5 8.55228 5 8C5 7.44772 4.55228 7 4 7ZM16 7C15.4477 7 15 7.44772 15 8C15 8.55228 15.4477 9 16 9C16.5523 9 17 8.55228 17 8C17 7.44772 16.5523 7 16 7Z" fill="#0F172A"/>
</svg>
