<svg width="20" height="20" viewBox="0 0 20 20" fill="none" xmlns="http://www.w3.org/2000/svg">
<path d="M17 15C17 17.2091 13.866 19 10 19C6.13401 19 3 17.2091 3 15V13.1768C3.39565 13.5465 3.84196 13.8659 4.30566 14.1309C5.83765 15.0063 7.85433 15.5 10 15.5C12.1457 15.5 14.1623 15.0063 15.6943 14.1309C16.158 13.8659 16.6043 13.5465 17 13.1768V15ZM17 10C17 12.2091 13.866 14 10 14C6.13401 14 3 12.2091 3 10V8.17676C3.39565 8.5465 3.84196 8.86586 4.30566 9.13086C5.83765 10.0063 7.85433 10.5 10 10.5C12.1457 10.5 14.1623 10.0063 15.6943 9.13086C16.158 8.86586 16.6043 8.5465 17 8.17676V10ZM10 1C13.866 1 17 2.79086 17 5C17 7.20914 13.866 9 10 9C6.13401 9 3 7.20914 3 5C3 2.79086 6.13401 1 10 1Z" fill="#0F172A"/>
</svg>
