<svg width="20" height="20" viewBox="0 0 20 20" fill="none" xmlns="http://www.w3.org/2000/svg">
<path d="M8.5 3C10.1404 3 11.5759 3.87804 12.3623 5.18945C12.719 5.06689 13.1017 5 13.5 5C15.433 5 17 6.567 17 8.5C17 8.83326 16.9532 9.15559 16.8662 9.46094C18.1351 10.1315 19 11.4649 19 13C19 15.2091 17.2091 17 15 17H5.5C3.01472 17 1 14.9853 1 12.5C1 10.5185 2.28071 8.83596 4.05957 8.23535C4.02024 7.99608 4 7.75041 4 7.5C4 5.01472 6.01472 3 8.5 3ZM10 7C9.7915 7 9.5921 7.0865 9.4502 7.23926L6.2002 10.7393C5.91838 11.0428 5.93583 11.5179 6.23926 11.7998C6.54275 12.0816 7.01794 12.0642 7.2998 11.7607L9.25 9.66113V14.25C9.25 14.6642 9.58579 15 10 15C10.4142 15 10.75 14.6642 10.75 14.25V9.66113L12.7002 11.7607C12.9821 12.0642 13.4572 12.0816 13.7607 11.7998C14.0642 11.5179 14.0816 11.0428 13.7998 10.7393L10.5498 7.23926C10.4079 7.0865 10.2085 7 10 7Z" fill="#0F172A"/>
</svg>
