<svg width="20" height="20" viewBox="0 0 20 20" fill="none" xmlns="http://www.w3.org/2000/svg">
<path fill-rule="evenodd" clip-rule="evenodd" d="M10.0001 2.5C8.6906 2.5 7.47364 2.88645 6.45429 3.55132C6.10736 3.77761 5.64266 3.6798 5.41637 3.33287C5.19008 2.98593 5.28789 2.52123 5.63483 2.29494C6.89049 1.47594 8.39086 1 10.0001 1C14.4184 1 18.0001 4.58172 18.0001 9C18.0001 11.573 17.5679 14.0467 16.7715 16.3514C16.6363 16.7429 16.2092 16.9506 15.8177 16.8153C15.4262 16.6801 15.2185 16.253 15.3538 15.8615C16.0964 13.7123 16.5001 11.4041 16.5001 9C16.5001 5.41015 13.59 2.5 10.0001 2.5ZM4.33297 4.41627C4.67991 4.64256 4.77772 5.10725 4.55143 5.45419C3.88656 6.47353 3.50011 7.69049 3.50011 9C3.50011 10.6078 3.02501 12.107 2.20733 13.362C1.98122 13.709 1.51657 13.807 1.16952 13.5809C0.822472 13.3548 0.724437 12.8902 0.950555 12.5431C1.61434 11.5243 2.00011 10.3084 2.00011 9C2.00011 7.39075 2.47605 5.89038 3.29505 4.63472C3.52134 4.28778 3.98604 4.18998 4.33297 4.41627ZM10.0001 6.12C8.34325 6.12 7.00011 7.46314 7.00011 9.12C7.00011 9.13378 6.99974 9.14748 6.999 9.16108C6.96113 11.9169 5.95308 14.4401 4.30176 16.4018C4.03501 16.7187 3.56188 16.7593 3.24499 16.4926C2.9281 16.2258 2.88745 15.7527 3.1542 15.4358C4.61854 13.6962 5.50011 11.452 5.50011 9C5.50011 8.97218 5.50162 8.94471 5.50458 8.91767C5.61039 6.52628 7.58263 4.62 10.0001 4.62C12.4175 4.62 14.3897 6.52613 14.4956 8.91754C14.4986 8.94516 14.5002 8.97323 14.5001 9.00166L14.4999 9.0815L14.5001 9.11633C14.5002 9.12755 14.5 9.13872 14.4995 9.14983C14.4988 9.24922 14.4972 9.34844 14.4949 9.44749C14.4854 9.86159 14.1419 10.1895 13.7278 10.1799C13.3137 10.1704 12.9858 9.8269 12.9953 9.4128C12.9979 9.30372 12.9994 9.19439 12.9999 9.08481C12.9811 7.44426 11.6452 6.12 10.0001 6.12ZM10.0001 8.25C10.4143 8.25 10.7501 8.58579 10.7501 9C10.7501 12.5103 9.56315 15.7455 7.56912 18.3232C7.31568 18.6509 6.84463 18.711 6.517 18.4576C6.18938 18.2041 6.12924 17.7331 6.38268 17.4054C8.18061 15.0812 9.25011 12.1666 9.25011 9C9.25011 8.58579 9.58589 8.25 10.0001 8.25ZM13.529 11.9478C13.9347 12.0309 14.1963 12.4273 14.1131 12.8331C13.6843 14.9261 12.9114 16.8937 11.8563 18.6738C11.6451 19.0302 11.1851 19.1478 10.8287 18.9366C10.4724 18.7254 10.3547 18.2654 10.5659 17.9091C11.5375 16.2697 12.2489 14.4585 12.6437 12.532C12.7268 12.1262 13.1232 11.8646 13.529 11.9478Z" fill="#0F172A"/>
</svg>
