<svg width="20" height="20" viewBox="0 0 20 20" fill="none" xmlns="http://www.w3.org/2000/svg">
<path d="M8.58594 3C9.05001 3.00004 9.49509 3.18454 9.82324 3.5127L11.2373 4.92676C11.2842 4.97361 11.3478 4.99996 11.4141 5H16.25C17.2165 5 18 5.7835 18 6.75V15.25C18 16.2165 17.2165 17 16.25 17H3.75C2.7835 17 2 16.2165 2 15.25V4.75C2 3.7835 2.7835 3 3.75 3H8.58594ZM10 8C9.58579 8 9.25 8.33579 9.25 8.75V10.25H7.75C7.33579 10.25 7 10.5858 7 11C7 11.4142 7.33579 11.75 7.75 11.75H9.25V13.25C9.25 13.6642 9.58579 14 10 14C10.4142 14 10.75 13.6642 10.75 13.25V11.75H12.25C12.6642 11.75 13 11.4142 13 11C13 10.5858 12.6642 10.25 12.25 10.25H10.75V8.75C10.75 8.33579 10.4142 8 10 8Z" fill="#0F172A"/>
</svg>
