<svg width="20" height="20" viewBox="0 0 20 20" fill="none" xmlns="http://www.w3.org/2000/svg">
<path d="M8.16211 10.75C7.82345 12.1832 6.53672 13.25 5 13.25C4.58579 13.25 4.25 13.5858 4.25 14C4.25 14.4142 4.58579 14.75 5 14.75C6.86116 14.75 8.47089 13.6789 9.25 12.1201V17H3.5C2.67157 17 2 16.3284 2 15.5V10.75H8.16211ZM18 15.5C18 16.3284 17.3284 17 16.5 17H10.75V12.1201C11.5291 13.6789 13.1388 14.75 15 14.75C15.4142 14.75 15.75 14.4142 15.75 14C15.75 13.5858 15.4142 13.25 15 13.25C13.4633 13.25 12.1765 12.1832 11.8379 10.75H18V15.5ZM9.25 5.36621C8.17166 4.36272 6.4857 4.3837 5.43555 5.43359C4.38492 6.48422 4.36413 8.17165 5.36914 9.25H2V4.5C2 3.67157 2.67157 3 3.5 3H9.25V5.36621ZM16.5 3C17.3284 3 18 3.67157 18 4.5V9.25H14.6309C15.6359 8.17165 15.6151 6.48422 14.5645 5.43359C13.5143 4.3837 11.8283 4.36272 10.75 5.36621V3H16.5ZM6.49609 6.49414C6.98419 6.00631 7.77558 6.00631 8.26367 6.49414C8.62301 6.85348 8.78995 7.49352 8.82324 8.19141C8.83404 8.41808 8.82557 8.63212 8.81543 8.81445C8.63312 8.82459 8.41998 8.83208 8.19336 8.82129C7.49546 8.78805 6.85555 8.62194 6.49609 8.2627C6.00794 7.77454 6.00794 6.9823 6.49609 6.49414ZM11.7363 6.49414C12.2244 6.00631 13.0158 6.00631 13.5039 6.49414C13.9921 6.9823 13.9921 7.77454 13.5039 8.2627C13.1444 8.62194 12.5045 8.78805 11.8066 8.82129C11.58 8.83208 11.3669 8.82459 11.1846 8.81445C11.1744 8.63212 11.166 8.41808 11.1768 8.19141C11.2101 7.49352 11.377 6.85348 11.7363 6.49414Z" fill="#0F172A"/>
</svg>
