<svg width="20" height="21" viewBox="0 0 20 21" fill="none" xmlns="http://www.w3.org/2000/svg">
<path d="M9.23619 17.6046C9.8745 18.3119 10.4438 17.9669 10.7371 17.6046C11.7722 16.5695 13.5146 14.8386 14.2564 14.1025C14.2564 14.1025 14.6877 13.5332 14.1701 13.0329C13.6526 12.5326 13.0833 12.9294 13.0833 12.9294L10.8233 15.1894V9.54808C10.9671 7.6274 12.4726 3.75844 17.3444 3.64803C17.3444 3.64803 18 3.49277 18 2.85446C18 2.21615 17.3444 2.00913 17.3444 2.00913C15.7055 1.90562 11.9412 2.64399 9.99522 6.42554C8.87387 4.4071 6.5449 2.00913 2.64604 2.00913C1.47293 2.54393 2.16299 3.65668 2.64604 3.64803C4.57247 3.61353 8.57369 4.74523 9.16715 9.54808L9.16715 15.1894L6.92447 12.9294C5.73411 12.3946 5.32004 13.5677 5.73411 14.1025L9.23619 17.6046Z" fill="black" stroke="black"/>
</svg>
