<svg width="20" height="20" viewBox="0 0 20 20" fill="none" xmlns="http://www.w3.org/2000/svg">
<path d="M4.64844 2C5.35146 2.00003 5.9598 2.48852 6.1123 3.1748L6.8291 6.39746C7.00128 7.17227 6.53954 7.94699 5.77637 8.16504L4.84375 8.43164C4.43303 8.54904 4.20138 8.98692 4.36426 9.38184C5.5303 12.2087 7.79126 14.4697 10.6182 15.6357C11.0131 15.7986 11.451 15.567 11.5684 15.1562L11.835 14.2236C12.053 13.4605 12.8277 12.9987 13.6025 13.1709L16.8252 13.8877C17.5115 14.0402 18 14.6485 18 15.3516V16.5C18 17.3284 17.3284 18 16.5 18H15C13.8514 18 12.7362 17.8507 11.6738 17.5703C7.16658 16.3807 3.61935 12.8334 2.42969 8.32617C2.14933 7.26382 2 6.14856 2 5V3.5C2 2.67157 2.67157 2 3.5 2H4.64844ZM16.7197 2.21973C17.0126 1.92683 17.4874 1.92683 17.7803 2.21973C18.0732 2.51262 18.0732 2.98738 17.7803 3.28027L16.0605 5L17.7803 6.71973C18.0732 7.01262 18.0732 7.48738 17.7803 7.78027C17.4874 8.07317 17.0126 8.07317 16.7197 7.78027L15 6.06055L13.2803 7.78027C12.9874 8.07317 12.5126 8.07317 12.2197 7.78027C11.9268 7.48738 11.9268 7.01262 12.2197 6.71973L13.9395 5L12.2197 3.28027C11.9268 2.98738 11.9268 2.51262 12.2197 2.21973C12.5126 1.92683 12.9874 1.92683 13.2803 2.21973L15 3.93945L16.7197 2.21973Z" fill="#0F172A"/>
</svg>
