<svg width="20" height="20" viewBox="0 0 20 20" fill="none" xmlns="http://www.w3.org/2000/svg">
<path d="M18.25 2C18.6642 2 19 2.33579 19 2.75C19 3.16421 18.6642 3.5 18.25 3.5H18V12.25C18 13.7688 16.7688 15 15.25 15H14.1777L14.9756 18.0605C15.0801 18.4613 14.8403 18.871 14.4395 18.9756C14.0387 19.0801 13.629 18.8401 13.5244 18.4395L13.4102 18H6.59082L6.47559 18.4395C6.37092 18.8401 5.96126 19.0801 5.56055 18.9756C5.15994 18.8709 4.91988 18.4612 5.02441 18.0605L5.82324 15H4.75C3.23122 15 2 13.7688 2 12.25V3.5H1.75C1.33579 3.5 1 3.16421 1 2.75C1 2.33579 1.33579 2 1.75 2H18.25ZM6.98145 16.5H13.0186L12.627 15H7.37305L6.98145 16.5ZM6.75 9C6.33579 9 6 9.33579 6 9.75V11.25C6 11.6642 6.33579 12 6.75 12C7.16421 12 7.5 11.6642 7.5 11.25V9.75C7.5 9.33579 7.16421 9 6.75 9ZM10 7C9.58579 7 9.25 7.33579 9.25 7.75V11.25C9.25 11.6642 9.58579 12 10 12C10.4142 12 10.75 11.6642 10.75 11.25V7.75C10.75 7.33579 10.4142 7 10 7ZM13.25 5C12.8358 5 12.5 5.33579 12.5 5.75V11.25C12.5 11.6642 12.8358 12 13.25 12C13.6642 12 14 11.6642 14 11.25V5.75C14 5.33579 13.6642 5 13.25 5Z" fill="#0F172A"/>
</svg>
