<svg width="20" height="20" viewBox="0 0 20 20" fill="none" xmlns="http://www.w3.org/2000/svg">
<path d="M12 16C12.5523 16 13 16.4477 13 17V17.0098C13 17.5621 12.5523 18.0098 12 18.0098H11.9902C11.4379 18.0098 10.9902 17.5621 10.9902 17.0098V17C10.9902 16.4477 11.4379 16 11.9902 16H12ZM17 16C17.5523 16 18 16.4477 18 17V17.0098C18 17.5621 17.5523 18.0098 17 18.0098H16.9902C16.4379 18.0098 15.9902 17.5621 15.9902 17.0098V17C15.9902 16.4477 16.4379 16 16.9902 16H17ZM7.25 11C8.2165 11 9 11.7835 9 12.75V16.25C9 17.2165 8.2165 18 7.25 18H3.75C2.7835 18 2 17.2165 2 16.25V12.75C2 11.7835 2.7835 11 3.75 11H7.25ZM3.75 12.5C3.61193 12.5 3.5 12.6119 3.5 12.75V16.25C3.5 16.3881 3.61193 16.5 3.75 16.5H7.25C7.38807 16.5 7.5 16.3881 7.5 16.25V12.75C7.5 12.6119 7.38807 12.5 7.25 12.5H3.75ZM5.5 13.5C6.05228 13.5 6.5 13.9477 6.5 14.5V14.5098C6.5 15.0621 6.05228 15.5098 5.5 15.5098H5.49023C4.93795 15.5098 4.49023 15.0621 4.49023 14.5098V14.5C4.49023 13.9477 4.93795 13.5 5.49023 13.5H5.5ZM14.5 13.5C15.0523 13.5 15.5 13.9477 15.5 14.5V14.5098C15.5 15.0621 15.0523 15.5098 14.5 15.5098H14.4902C13.9379 15.5098 13.4902 15.0621 13.4902 14.5098V14.5C13.4902 13.9477 13.9379 13.5 14.4902 13.5H14.5ZM12 11C12.5523 11 13 11.4477 13 12V12.0098C13 12.5621 12.5523 13.0098 12 13.0098H11.9902C11.4379 13.0098 10.9902 12.5621 10.9902 12.0098V12C10.9902 11.4477 11.4379 11 11.9902 11H12ZM17 11C17.5523 11 18 11.4477 18 12V12.0098C18 12.5621 17.5523 13.0098 17 13.0098H16.9902C16.4379 13.0098 15.9902 12.5621 15.9902 12.0098V12C15.9902 11.4477 16.4379 11 16.9902 11H17ZM7.25 2C8.2165 2 9 2.7835 9 3.75V7.25C9 8.2165 8.2165 9 7.25 9H3.75C2.7835 9 2 8.2165 2 7.25V3.75C2 2.7835 2.7835 2 3.75 2H7.25ZM16.25 2C17.2165 2 18 2.7835 18 3.75V7.25C18 8.2165 17.2165 9 16.25 9H12.75C11.7835 9 11 8.2165 11 7.25V3.75C11 2.7835 11.7835 2 12.75 2H16.25ZM3.75 3.5C3.61193 3.5 3.5 3.61193 3.5 3.75V7.25C3.5 7.38807 3.61193 7.5 3.75 7.5H7.25C7.38807 7.5 7.5 7.38807 7.5 7.25V3.75C7.5 3.61193 7.38807 3.5 7.25 3.5H3.75ZM12.75 3.5C12.6119 3.5 12.5 3.61193 12.5 3.75V7.25C12.5 7.38807 12.6119 7.5 12.75 7.5H16.25C16.3881 7.5 16.5 7.38807 16.5 7.25V3.75C16.5 3.61193 16.3881 3.5 16.25 3.5H12.75ZM5.5 4.5C6.05228 4.5 6.5 4.94772 6.5 5.5V5.50977C6.5 6.06205 6.05228 6.50977 5.5 6.50977H5.49023C4.93795 6.50977 4.49023 6.06205 4.49023 5.50977V5.5C4.49023 4.94772 4.93795 4.5 5.49023 4.5H5.5ZM14.5 4.5C15.0523 4.5 15.5 4.94772 15.5 5.5V5.50977C15.5 6.06205 15.0523 6.50977 14.5 6.50977H14.4902C13.9379 6.50977 13.4902 6.06205 13.4902 5.50977V5.5C13.4902 4.94772 13.9379 4.5 14.4902 4.5H14.5Z" fill="#0F172A"/>
</svg>
