<svg width="20" height="20" viewBox="0 0 20 20" fill="none" xmlns="http://www.w3.org/2000/svg">
<path fill-rule="evenodd" clip-rule="evenodd" d="M10.3389 2.23669C10.1429 2.07394 9.85709 2.07394 9.66109 2.23669C7.72231 3.84655 5.2685 4.8576 2.58337 4.98613C2.34202 4.99768 2.13593 5.17201 2.10424 5.41156C2.03548 5.93137 2 6.46169 2 7.00029C2 12.1628 5.26004 16.564 9.83378 18.2573C9.94102 18.297 10.0593 18.297 10.1665 18.2573C14.7401 16.5639 18 12.1628 18 7.00041C18 6.46176 17.9645 5.93141 17.8957 5.41155C17.8641 5.17201 17.658 4.99768 17.4166 4.98613C14.7315 4.8576 12.2777 3.84655 10.3389 2.23669ZM10 6.00006C10.4142 6.00006 10.75 6.33585 10.75 6.75006V10.2501C10.75 10.6643 10.4142 11.0001 10 11.0001C9.58579 11.0001 9.25 10.6643 9.25 10.2501L9.25 6.75006C9.25 6.33585 9.58579 6.00006 10 6.00006ZM10 15.0001C10.5523 15.0001 11 14.5523 11 14.0001C11 13.4478 10.5523 13.0001 10 13.0001C9.44772 13.0001 9 13.4478 9 14.0001C9 14.5523 9.44772 15.0001 10 15.0001Z" fill="#0F172A"/>
</svg>
