<svg width="20" height="20" viewBox="0 0 20 20" fill="none" xmlns="http://www.w3.org/2000/svg">
<g clip-path="url(#clip0_164_399)">
<path d="M9 3C9 2.44781 9.44687 2 10 2C14.4187 2 18 5.58125 18 10C18 11.4563 17.6094 12.825 16.9281 14C16.6531 14.4781 16.0406 14.6438 15.5344 14.3656C15.0844 14.0906 14.9219 13.4781 15.1969 12.9719C15.7062 12.1188 16 11.0938 16 9.97188C16 6.65938 13.3125 3.97187 10 3.97187C9.44687 3.97187 9 3.55219 9 2.97188V3Z" fill="black"/>
<path opacity="0.4" d="M9.97188 4C6.65938 4 3.97188 6.65938 3.97188 10C3.97188 13.3125 6.65938 16 9.97188 16C12.1906 16 14.1031 14.8281 15.1531 13.075L15.1563 13.0781C14.9406 13.5437 15.1094 14.1031 15.5344 14.3656C16.0406 14.6438 16.6531 14.4781 16.9281 14C16.9344 13.9906 16.9406 13.9812 16.9438 13.9719C15.5656 16.3781 12.9719 18 10 18C5.58125 18 2 14.4187 2 10C2 5.58125 5.58125 2 10 2C9.44688 2 9 2.44781 9 3C9 3.55219 9.44688 4 10 4H9.97188Z" fill="black"/>
</g>
<defs>
<clipPath id="clip0_164_399">
<rect width="18" height="16" fill="white" transform="translate(1 2)"/>
</clipPath>
</defs>
</svg>
