<svg width="20" height="20" viewBox="0 0 20 20" fill="none" xmlns="http://www.w3.org/2000/svg">
<path d="M10 2C14.4183 2 18 5.58172 18 10C18 14.4183 14.4183 18 10 18C5.58172 18 2 14.4183 2 10C2 5.58172 5.58172 2 10 2ZM10 12C8.0417 12.0001 6.30209 12.9382 5.20703 14.3896C6.39529 15.6864 8.10256 16.4999 10 16.5C11.8971 16.4999 13.6038 15.686 14.792 14.3896C13.6969 12.9385 11.958 12.0001 10 12ZM10 5C8.61929 5 7.5 6.11929 7.5 7.5C7.5 8.88071 8.61929 10 10 10C11.3807 10 12.5 8.88071 12.5 7.5C12.5 6.11929 11.3807 5 10 5Z" fill="#0F172A"/>
</svg>
