<svg width="20" height="20" viewBox="0 0 20 20" fill="none" xmlns="http://www.w3.org/2000/svg">
<path fill-rule="evenodd" clip-rule="evenodd" d="M15.212 2.079C15.5825 1.89395 16.033 2.04436 16.218 2.41494C17.3587 4.69916 18 7.27576 18 10C18 12.7242 17.3587 15.3008 16.218 17.5851C16.033 17.9556 15.5825 18.106 15.212 17.921C14.8414 17.7359 14.691 17.2855 14.876 16.9149C15.9151 14.8341 16.5 12.4864 16.5 10C16.5 7.51355 15.9151 5.16587 14.876 3.08506C14.691 2.71448 14.8414 2.26405 15.212 2.079ZM4.78803 2.079C5.15861 2.26405 5.30901 2.71448 5.12397 3.08506C4.08491 5.16587 3.5 7.51355 3.5 10C3.5 12.4864 4.08491 14.8341 5.12397 16.9149C5.30901 17.2855 5.15861 17.7359 4.78803 17.921C4.41745 18.106 3.96703 17.9556 3.78198 17.5851C2.64135 15.3008 2 12.7242 2 10C2 7.27576 2.64135 4.69916 3.78198 2.41494C3.96703 2.04436 4.41745 1.89395 4.78803 2.079ZM7.07277 5.63343C7.86037 5.10837 8.93143 5.43511 9.29184 6.31038L10.1483 8.39028L11.2942 6.61928C11.9758 5.56588 13.3873 5.27351 14.4313 5.96948L14.666 6.12596C15.0107 6.35572 15.1038 6.82138 14.874 7.16602C14.6443 7.51067 14.1786 7.6038 13.834 7.37403L13.5993 7.21756C13.2513 6.98557 12.7808 7.08302 12.5536 7.43416L10.8431 10.0777L12.0952 13.1185L12.834 12.626C13.1786 12.3962 13.6443 12.4893 13.874 12.834C14.1038 13.1786 14.0107 13.6443 13.666 13.874L12.9272 14.3666C12.1396 14.8916 11.0686 14.5649 10.7082 13.6896L9.85173 11.6097L8.70579 13.3807C8.02418 14.4341 6.61265 14.7265 5.56869 14.0305L5.33397 13.874C4.98933 13.6443 4.8962 13.1786 5.12596 12.834C5.35573 12.4893 5.82138 12.3962 6.16603 12.626L6.40074 12.7824C6.74873 13.0144 7.21923 12.917 7.44644 12.5658L9.15693 9.92234L7.90482 6.8815L7.16603 7.37403C6.82138 7.6038 6.35573 7.51067 6.12596 7.16602C5.8962 6.82138 5.98933 6.35572 6.33397 6.12596L7.07277 5.63343Z" fill="#0F172A"/>
</svg>
