<svg width="24" height="24" viewBox="0 0 24 24" fill="none" xmlns="http://www.w3.org/2000/svg">
<path fill-rule="evenodd" clip-rule="evenodd" d="M3.73926 20.2495C3.73926 19.8353 4.07506 19.4995 4.48929 19.4995L14.9902 19.4995L14.9902 5.56056L12.5202 8.03024C12.2273 8.32312 11.7524 8.3231 11.4595 8.03018C11.1666 7.73727 11.1667 7.26239 11.4596 6.96951L15.2099 3.21964C15.5028 2.92677 15.9777 2.92677 16.2706 3.21964L20.021 6.96951C20.3139 7.26239 20.3139 7.73727 20.021 8.03018C19.7281 8.3231 19.2532 8.32312 18.9603 8.03024L16.4903 5.56056L16.4903 20.2495C16.4903 20.6637 16.1545 20.9995 15.7403 20.9995L4.48929 20.9995C4.07506 20.9995 3.73926 20.6637 3.73926 20.2495Z" fill="black"/>
</svg>
