<svg width="24" height="24" viewBox="0 0 24 24" fill="none" xmlns="http://www.w3.org/2000/svg">
<path fill-rule="evenodd" clip-rule="evenodd" d="M3.73926 3.75001C3.73926 4.16423 4.07506 4.50002 4.48929 4.50002L14.9902 4.50002L14.9902 18.4389L12.5202 15.9693C12.2273 15.6764 11.7524 15.6764 11.4595 15.9693C11.1666 16.2622 11.1667 16.7371 11.4596 17.03L15.2099 20.7799C15.5028 21.0727 15.9777 21.0727 16.2706 20.7799L20.021 17.03C20.3139 16.7371 20.3139 16.2622 20.021 15.9693C19.7281 15.6764 19.2532 15.6764 18.9603 15.9693L16.4903 18.4389L16.4903 3.75001C16.4903 3.33579 16.1545 3 15.7403 3L4.48929 3C4.07506 3 3.73926 3.33579 3.73926 3.75001Z" fill="black"/>
</svg>
