<svg width="24" height="24" viewBox="0 0 24 24" fill="none" xmlns="http://www.w3.org/2000/svg">
<path fill-rule="evenodd" clip-rule="evenodd" d="M3.74 20.2501C4.15422 20.2501 4.49001 19.9143 4.49001 19.5001L4.49001 8.99915L18.4289 8.99915L15.9593 11.4691C15.6664 11.7621 15.6664 12.237 15.9593 12.5299C16.2522 12.8227 16.7271 12.8227 17.02 12.5298L20.7699 8.77944C21.0627 8.48654 21.0627 8.01168 20.7699 7.71878L17.02 3.96842C16.7271 3.6755 16.2522 3.67548 15.9593 3.96837C15.6664 4.26126 15.6664 4.73616 15.9593 5.02908L18.4289 7.49907L3.74 7.49908C3.32578 7.49908 2.98999 7.83488 2.98999 8.24911L2.98999 19.5001C2.98999 19.9143 3.32578 20.2501 3.74 20.2501Z" fill="black"/>
</svg>
