<svg width="24" height="24" viewBox="0 0 24 24" fill="none" xmlns="http://www.w3.org/2000/svg">
<path fill-rule="evenodd" clip-rule="evenodd" d="M20.24 3.74939C19.8258 3.74939 19.49 4.08519 19.49 4.49943V15.0004H5.55104L8.02072 12.5304C8.3136 12.2374 8.31358 11.7626 8.02066 11.4697C7.72775 11.1768 7.25287 11.1768 6.95999 11.4697L3.21011 15.2201C2.91725 15.513 2.91725 15.9878 3.21011 16.2807L6.95999 20.0311C7.25287 20.324 7.72775 20.324 8.02066 20.0311C8.31358 19.7382 8.3136 19.2634 8.02072 18.9704L5.55104 16.5004H20.24C20.6542 16.5004 20.99 16.1646 20.99 15.7504V4.49943C20.99 4.08519 20.6542 3.74939 20.24 3.74939Z" fill="black"/>
</svg>
