<svg width="24" height="24" viewBox="0 0 24 24" fill="none" xmlns="http://www.w3.org/2000/svg">
<path fill-rule="evenodd" clip-rule="evenodd" d="M3.74049 3.74939C4.15471 3.74939 4.4905 4.08519 4.4905 4.49943V15.0004H18.4294L15.9598 12.5304C15.6669 12.2374 15.6669 11.7626 15.9598 11.4697C16.2527 11.1768 16.7276 11.1768 17.0205 11.4697L20.7704 15.2201C21.0632 15.513 21.0632 15.9878 20.7704 16.2807L17.0205 20.0311C16.7276 20.324 16.2527 20.324 15.9598 20.0311C15.6669 19.7382 15.6669 19.2634 15.9598 18.9704L18.4294 16.5004H3.74049C3.32627 16.5004 2.99048 16.1646 2.99048 15.7504V4.49943C2.99048 4.08519 3.32627 3.74939 3.74049 3.74939Z" fill="black"/>
</svg>
