<svg width="24" height="24" viewBox="0 0 24 24" fill="none" xmlns="http://www.w3.org/2000/svg">
<path fill-rule="evenodd" clip-rule="evenodd" d="M20.2407 20.2495C20.2407 19.8353 19.9049 19.4995 19.4907 19.4995L8.98975 19.4995L8.98975 5.56056L11.4597 8.03024C11.7527 8.32312 12.2276 8.3231 12.5205 8.03018C12.8133 7.73727 12.8133 7.26239 12.5204 6.96951L8.77004 3.21964C8.47714 2.92677 8.00228 2.92677 7.70938 3.21964L3.95902 6.96951C3.6661 7.26239 3.66608 7.73727 3.95897 8.03018C4.25186 8.3231 4.72676 8.32312 5.01968 8.03024L7.48968 5.56056L7.48968 20.2495C7.48968 20.6637 7.82548 20.9995 8.23971 20.9995L19.4907 20.9995C19.9049 20.9995 20.2407 20.6637 20.2407 20.2495Z" fill="black"/>
</svg>
