<svg width="24" height="24" viewBox="0 0 24 24" fill="none" xmlns="http://www.w3.org/2000/svg">
<path fill-rule="evenodd" clip-rule="evenodd" d="M20.2407 3.75001C20.2407 4.16423 19.9049 4.50002 19.4907 4.50002L8.98975 4.50002L8.98975 18.4389L11.4597 15.9693C11.7527 15.6764 12.2276 15.6764 12.5205 15.9693C12.8133 16.2622 12.8133 16.7371 12.5204 17.03L8.77004 20.7799C8.47714 21.0727 8.00228 21.0727 7.70938 20.7799L3.95902 17.03C3.6661 16.7371 3.66608 16.2622 3.95897 15.9693C4.25186 15.6764 4.72676 15.6764 5.01968 15.9693L7.48968 18.4389L7.48968 3.75001C7.48968 3.33579 7.82548 3 8.23971 3L19.4907 3C19.9049 3 20.2407 3.33579 20.2407 3.75001Z" fill="black"/>
</svg>
