<svg width="24" height="24" viewBox="0 0 24 24" fill="none" xmlns="http://www.w3.org/2000/svg">
<path fill-rule="evenodd" clip-rule="evenodd" d="M20.2397 20.2505C19.8255 20.2505 19.4897 19.9147 19.4897 19.5005L19.4897 8.99951L5.5508 8.99951L8.02047 11.4695C8.31336 11.7624 8.31333 12.2373 8.02042 12.5302C7.72751 12.8231 7.25263 12.8231 6.95974 12.5302L3.20987 8.77981C2.91701 8.4869 2.91701 8.01205 3.20987 7.71915L6.95975 3.96879C7.25263 3.67586 7.72751 3.67584 8.02042 3.96873C8.31333 4.26163 8.31336 4.73652 8.02047 5.02944L5.5508 7.49944L20.2397 7.49944C20.654 7.49944 20.9897 7.83524 20.9897 8.24948L20.9897 19.5005C20.9897 19.9147 20.654 20.2505 20.2397 20.2505Z" fill="black"/>
</svg>
