<svg width="24" height="24" viewBox="0 0 24 24" fill="none" xmlns="http://www.w3.org/2000/svg">
<path d="M5.85024 3.50019C6.12648 3.19155 6.10021 2.7174 5.79157 2.44116C5.48292 2.16491 5.00878 2.19118 4.73253 2.49982C3.53158 3.84163 2.69593 5.51948 2.38448 7.37592C2.31594 7.78442 2.59155 8.17114 3.00005 8.23967C3.40855 8.3082 3.79527 8.0326 3.8638 7.6241C4.12691 6.05581 4.83289 4.63686 5.85024 3.50019Z" fill="#0F172A"/>
<path d="M19.2669 2.49982C18.9906 2.19118 18.5165 2.16491 18.2078 2.44116C17.8992 2.7174 17.8729 3.19155 18.1492 3.50019C19.1665 4.63686 19.8725 6.05581 20.1356 7.6241C20.2041 8.0326 20.5909 8.3082 20.9994 8.23967C21.4079 8.17114 21.6835 7.78442 21.6149 7.37592C21.3035 5.51948 20.4678 3.84163 19.2669 2.49982Z" fill="#0F172A"/>
<path fill-rule="evenodd" clip-rule="evenodd" d="M11.9999 2.25C8.27203 2.25 5.25 5.27197 5.24989 8.9998L5.24969 9.75C5.24969 11.8731 4.44867 13.8074 3.13114 15.2699C2.96464 15.4547 2.90061 15.71 2.96021 15.9516C3.0198 16.1931 3.19527 16.3893 3.42863 16.4755C4.97275 17.0455 6.58921 17.4659 8.26028 17.7192C8.25339 17.812 8.24989 17.9056 8.24989 18C8.24989 20.0711 9.92882 21.75 11.9999 21.75C14.071 21.75 15.7499 20.0711 15.7499 18C15.7499 17.9056 15.7464 17.812 15.7395 17.7192C17.4104 17.4659 19.0268 17.0455 20.5708 16.4755C20.8041 16.3893 20.9796 16.1931 21.0392 15.9516C21.0988 15.71 21.0347 15.4547 20.8682 15.2699C19.5507 13.8074 18.7497 11.8731 18.7497 9.75V9.04919L18.7499 9C18.7499 5.27208 15.7278 2.25 11.9999 2.25ZM9.74989 18C9.74989 17.9662 9.75063 17.9326 9.75209 17.8993C10.4925 17.966 11.2422 18 11.9997 18C12.7573 18 13.5071 17.9659 14.2477 17.8992C14.2491 17.9326 14.2499 17.9662 14.2499 18C14.2499 19.2426 13.2425 20.25 11.9999 20.25C10.7572 20.25 9.74989 19.2426 9.74989 18Z" fill="#0F172A"/>
</svg>
