<svg width="24" height="24" viewBox="0 0 24 24" fill="none" xmlns="http://www.w3.org/2000/svg">
<path fill-rule="evenodd" clip-rule="evenodd" d="M5.24683 3.74433C5.24683 3.3301 5.58262 2.99429 5.99684 2.99429H13.1217C15.8141 2.99429 17.9966 5.17716 17.9966 7.86973C17.9966 9.26692 17.409 10.5269 16.4673 11.4158C17.844 12.3623 18.7466 13.9485 18.7466 15.7455C18.7466 18.6452 16.3962 20.996 13.4967 20.996H5.99684C5.58262 20.996 5.24683 20.6602 5.24683 20.2459V3.74433ZM12.3717 10.495C13.8214 10.495 14.9966 9.3197 14.9966 7.86973C14.9966 6.41976 13.8214 5.24445 12.3717 5.24445H8.24683V10.495H12.3717ZM8.24683 12.7452V18.7458H12.7467C14.4035 18.7458 15.7466 17.4026 15.7466 15.7455C15.7466 14.0884 14.4035 12.7452 12.7467 12.7452H8.24683Z" fill="black"/>
</svg>
