<svg width="24" height="24" viewBox="0 0 24 24" fill="none" xmlns="http://www.w3.org/2000/svg">
<path d="M15 1.78406L14.2045 2.57956C13.7652 3.0189 13.7652 3.73121 14.2045 4.17055C14.6438 4.60989 15.3562 4.60989 15.7955 4.17055C16.2348 3.73121 16.2348 3.0189 15.7955 2.57956L15 1.78406Z" fill="#0F172A"/>
<path d="M12 1.78406L11.2045 2.57956C10.7652 3.0189 10.7652 3.73121 11.2045 4.17055C11.6438 4.60989 12.3562 4.60989 12.7955 4.17055C13.2348 3.73121 13.2348 3.0189 12.7955 2.57956L12 1.78406Z" fill="#0F172A"/>
<path d="M8.99999 1.78406L8.2045 2.57956C7.76516 3.0189 7.76516 3.73121 8.2045 4.17055C8.64384 4.60989 9.35616 4.60989 9.7955 4.17055C10.2348 3.73121 10.2348 3.0189 9.7955 2.57956L8.99999 1.78406Z" fill="#0F172A"/>
<path d="M9.75 7.54675C10.2483 7.52603 10.7483 7.51216 11.25 7.50524V6.75006C11.25 6.33585 11.5858 6.00006 12 6.00006C12.4142 6.00006 12.75 6.33585 12.75 6.75006V7.50524C13.2517 7.51216 13.7517 7.52603 14.25 7.54675V6.75006C14.25 6.33585 14.5858 6.00006 15 6.00006C15.4142 6.00006 15.75 6.33585 15.75 6.75006V7.63009C15.8524 7.63721 15.9547 7.64462 16.0569 7.65232C17.6071 7.76913 18.75 9.07938 18.75 10.5977V11.6163C16.5333 11.3743 14.2811 11.2501 12 11.2501C9.71886 11.2501 7.46673 11.3743 5.25 11.6163V10.5977C5.25 9.07938 6.39295 7.76913 7.94314 7.65232C8.04534 7.64462 8.14763 7.63721 8.25 7.63009V6.75006C8.25 6.33585 8.58579 6.00006 9 6.00006C9.41421 6.00006 9.75 6.33585 9.75 6.75006V7.54675Z" fill="#0F172A"/>
<path d="M12 12.7501C9.52847 12.7501 7.09944 12.934 4.72596 13.2892C3.27191 13.5067 2.25 14.7717 2.25 16.2058V16.59C3.11853 16.4287 4.02704 16.5501 4.83541 16.9542C5.56854 17.3208 6.43146 17.3208 7.16459 16.9542C8.32001 16.3765 9.67999 16.3765 10.8354 16.9542C11.5685 17.3208 12.4315 17.3208 13.1646 16.9542C14.32 16.3765 15.68 16.3765 16.8354 16.9542C17.5685 17.3208 18.4315 17.3208 19.1646 16.9542C19.973 16.5501 20.8815 16.4287 21.75 16.59V16.2057C21.75 14.7717 20.7281 13.5067 19.274 13.2892C16.9006 12.934 14.4715 12.7501 12 12.7501Z" fill="#0F172A"/>
<path d="M21.75 18.1313C21.1195 17.9416 20.4342 17.9965 19.8354 18.2959C18.68 18.8736 17.32 18.8736 16.1646 18.2959C15.4315 17.9293 14.5685 17.9293 13.8354 18.2959C12.68 18.8736 11.32 18.8736 10.1646 18.2959C9.43146 17.9293 8.56854 17.9293 7.83541 18.2959C6.67999 18.8736 5.32001 18.8736 4.16459 18.2959C3.56583 17.9965 2.88049 17.9416 2.25 18.1313V20.6251C2.25 21.6606 3.08947 22.5001 4.125 22.5001H19.875C20.9105 22.5001 21.75 21.6606 21.75 20.6251V18.1313Z" fill="#0F172A"/>
</svg>
