<svg width="24" height="24" viewBox="0 0 24 24" fill="none" xmlns="http://www.w3.org/2000/svg">
<path d="M12.0001 11.9929C11.5859 11.9929 11.2501 12.3287 11.2501 12.7429V12.7486C11.2501 13.1628 11.5859 13.4986 12.0001 13.4986H12.0058C12.42 13.4986 12.7558 13.1628 12.7558 12.7486V12.7429C12.7558 12.3287 12.42 11.9929 12.0058 11.9929H12.0001Z" fill="black"/>
<path d="M11.9994 16.4934C11.5852 16.4934 11.2494 16.8292 11.2494 17.2434V17.249C11.2494 17.6633 11.5852 17.9991 11.9994 17.9991H12.005C12.4193 17.9991 12.7551 17.6633 12.7551 17.249V17.2434C12.7551 16.8292 12.4193 16.4934 12.005 16.4934H11.9994Z" fill="black"/>
<path d="M8.99861 17.2441C8.99861 16.8299 9.33441 16.4941 9.74864 16.4941H9.75427C10.1685 16.4941 10.5043 16.8299 10.5043 17.2441V17.2498C10.5043 17.664 10.1685 17.9998 9.75427 17.9998H9.74864C9.33441 17.9998 8.99861 17.664 8.99861 17.2498V17.2441Z" fill="black"/>
<path d="M7.49861 16.4934C7.08438 16.4934 6.74858 16.8292 6.74858 17.2434V17.249C6.74858 17.6633 7.08438 17.9991 7.49861 17.9991H7.50424C7.91847 17.9991 8.25427 17.6633 8.25427 17.249V17.2434C8.25427 16.8292 7.91847 16.4934 7.50424 16.4934H7.49861Z" fill="black"/>
<path d="M13.4987 14.9966C13.4987 14.5824 13.8345 14.2466 14.2487 14.2466H14.2543C14.6686 14.2466 15.0044 14.5824 15.0044 14.9966V15.0023C15.0044 15.4165 14.6686 15.7523 14.2543 15.7523H14.2487C13.8345 15.7523 13.4987 15.4165 13.4987 15.0023V14.9966Z" fill="black"/>
<path d="M14.2494 16.4941C13.8352 16.4941 13.4994 16.8299 13.4994 17.2441V17.2498C13.4994 17.664 13.8352 17.9998 14.2494 17.9998H14.2551C14.6693 17.9998 15.0051 17.664 15.0051 17.2498V17.2441C15.0051 16.8299 14.6693 16.4941 14.2551 16.4941H14.2494Z" fill="black"/>
<path d="M15.7494 14.9952C15.7494 14.5809 16.0852 14.2451 16.4995 14.2451H16.5051C16.9193 14.2451 17.2551 14.5809 17.2551 14.9952V15.0008C17.2551 15.415 16.9193 15.7508 16.5051 15.7508H16.4995C16.0852 15.7508 15.7494 15.415 15.7494 15.0008V14.9952Z" fill="black"/>
<path d="M13.4979 12.743C13.4979 12.3287 13.8337 11.9929 14.2479 11.9929H16.4979C16.9121 11.9929 17.2479 12.3287 17.2479 12.743C17.2479 13.1572 16.9121 13.493 16.4979 13.493H14.2479C13.8337 13.493 13.4979 13.1572 13.4979 12.743Z" fill="black"/>
<path d="M6.74787 14.9932C6.74787 14.5789 7.08367 14.2431 7.4979 14.2431H11.9979C12.4121 14.2431 12.7479 14.5789 12.7479 14.9932C12.7479 15.4074 12.4121 15.7432 11.9979 15.7432H7.4979C7.08367 15.7432 6.74787 15.4074 6.74787 14.9932Z" fill="black"/>
<path fill-rule="evenodd" clip-rule="evenodd" d="M17.9997 2.99308C17.9997 2.57885 17.6639 2.24304 17.2497 2.24304C16.8354 2.24304 16.4996 2.57885 16.4996 2.99308V4.492H7.49939V2.99442C7.49939 2.58019 7.16359 2.24438 6.74935 2.24438C6.33512 2.24438 5.99932 2.58019 5.99932 2.99442V4.492H5.24793C3.59101 4.492 2.2478 5.83521 2.2478 7.49216V18.7434C2.2478 20.4004 3.59101 21.7436 5.24793 21.7436H18.7477C20.4047 21.7436 21.7479 20.4004 21.7479 18.7434V7.49216C21.7479 5.83521 20.4047 4.492 18.7477 4.492H17.9997V2.99308ZM3.74787 18.7434V11.243C3.74787 10.4145 4.41947 9.74292 5.24793 9.74292H18.7477C19.5762 9.74292 20.2478 10.4145 20.2478 11.243V18.7434C20.2478 19.5719 19.5762 20.2435 18.7477 20.2435H5.24793C4.41947 20.2435 3.74787 19.5719 3.74787 18.7434Z" fill="black"/>
</svg>
