<svg width="24" height="24" viewBox="0 0 24 24" fill="none" xmlns="http://www.w3.org/2000/svg">
<path fill-rule="evenodd" clip-rule="evenodd" d="M14.4473 3.02642C14.847 3.13541 15.0826 3.54772 14.9736 3.94734L10.4736 20.4473C10.3646 20.847 9.95228 21.0826 9.55266 20.9736C9.15304 20.8646 8.91744 20.4523 9.02643 20.0527L13.5264 3.55266C13.6354 3.15304 14.0477 2.91744 14.4473 3.02642ZM16.7197 6.21967C17.0126 5.92677 17.4874 5.92677 17.7803 6.21967L23.0303 11.4697C23.3232 11.7626 23.3232 12.2374 23.0303 12.5303L17.7803 17.7803C17.4874 18.0732 17.0126 18.0732 16.7197 17.7803C16.4268 17.4874 16.4268 17.0126 16.7197 16.7197L21.4393 12L16.7197 7.28033C16.4268 6.98743 16.4268 6.51256 16.7197 6.21967ZM7.28033 6.21967C7.57322 6.51256 7.57322 6.98743 7.28033 7.28033L2.56066 12L7.28033 16.7197C7.57322 17.0126 7.57322 17.4874 7.28033 17.7803C6.98744 18.0732 6.51256 18.0732 6.21967 17.7803L0.96967 12.5303C0.676777 12.2374 0.676777 11.7626 0.96967 11.4697L6.21967 6.21967C6.51256 5.92677 6.98744 5.92677 7.28033 6.21967Z" fill="#0F172A"/>
</svg>
