<svg width="24" height="24" viewBox="0 0 24 24" fill="none" xmlns="http://www.w3.org/2000/svg">
<path d="M17.0039 10.4068C17.1423 10.8418 16.7882 11.2492 16.3317 11.2492H12.8667C12.5988 11.2492 12.3512 11.1063 12.2172 10.8743L10.4845 7.87334C10.2561 7.47775 10.4321 6.9672 10.8784 6.87007C11.2398 6.79143 11.6151 6.75 12 6.75C14.344 6.75 16.3293 8.2862 17.0039 10.4068Z" fill="#0F172A"/>
<path d="M8.11938 8.46395C8.42728 8.12624 8.95767 8.22888 9.18619 8.62464L10.9182 11.6242C11.0522 11.8563 11.0522 12.1422 10.9182 12.3743L9.18577 15.3749C8.95726 15.7707 8.42679 15.8733 8.11891 15.5355C7.26853 14.6026 6.75 13.3618 6.75 12C6.75 10.6379 7.26872 9.39697 8.11938 8.46395Z" fill="#0F172A"/>
<path d="M10.8778 17.1298C10.4315 17.0326 10.2555 16.5221 10.4839 16.1265L12.2172 13.1242C12.3512 12.8922 12.5988 12.7492 12.8668 12.7492H16.3322C16.7886 12.7492 17.1426 13.1565 17.0044 13.5915C16.3304 15.713 14.3447 17.25 12 17.25C11.6148 17.25 11.2393 17.2085 10.8778 17.1298Z" fill="#0F172A"/>
<path fill-rule="evenodd" clip-rule="evenodd" d="M21.0007 12.7492C21.4149 12.7492 21.7507 12.4135 21.7507 11.9992C21.7507 11.585 21.4149 11.2492 21.0007 11.2492H20.2171C20.1753 10.7851 20.095 10.332 19.9795 9.89326L20.7143 9.62583C21.1035 9.48416 21.3042 9.05377 21.1625 8.66454C21.0209 8.27531 20.5905 8.07462 20.2012 8.21629L19.4664 8.48375C19.2695 8.06633 19.0386 7.66808 18.7773 7.29258L19.3771 6.7893C19.6944 6.52305 19.7358 6.04998 19.4695 5.73268C19.2033 5.41537 18.7302 5.37398 18.4129 5.64023L17.8126 6.14394C17.4869 5.82066 17.1344 5.52437 16.7588 5.2587L17.1502 4.58078C17.3573 4.22206 17.2344 3.76337 16.8756 3.55626C16.5169 3.34916 16.0582 3.47206 15.8511 3.83078L15.4604 4.50751C15.0465 4.31604 14.614 4.15786 14.1664 4.03642L14.3021 3.26694C14.374 2.85901 14.1016 2.47002 13.6937 2.39809C13.2858 2.32617 12.8968 2.59854 12.8249 3.00646L12.6889 3.77753C12.462 3.75879 12.2325 3.74924 12.0007 3.74924C11.769 3.74924 11.5394 3.75881 11.3124 3.77758L11.1764 3.0065C11.1045 2.59858 10.7155 2.32621 10.3076 2.39813C9.89966 2.47006 9.62728 2.85906 9.69921 3.26698L9.83492 4.03665C9.38749 4.15809 8.95506 4.31624 8.54113 4.50768L8.15018 3.8306C7.94306 3.47189 7.48436 3.349 7.12565 3.55612C6.76694 3.76324 6.64405 4.22194 6.85117 4.58065L7.24273 5.25879C6.86722 5.52433 6.51483 5.82051 6.18921 6.14372L5.58845 5.63961C5.27114 5.37336 4.79807 5.41475 4.53182 5.73206C4.26557 6.04936 4.30696 6.52243 4.62426 6.78868L5.22448 7.29233C4.96309 7.66794 4.73209 8.06634 4.53509 8.48397L3.80006 8.21644C3.41082 8.07477 2.98044 8.27546 2.83877 8.66469C2.6971 9.05393 2.89779 9.48431 3.28703 9.62598L4.02196 9.89347C3.90647 10.3322 3.8262 10.7851 3.78437 11.2492H3.00073C2.58652 11.2492 2.25073 11.585 2.25073 11.9992C2.25073 12.4134 2.58652 12.7492 3.00073 12.7492H3.78437C3.82619 13.2133 3.90644 13.6663 4.02192 14.1051L3.28678 14.3726C2.89755 14.5143 2.69685 14.9447 2.83852 15.3339C2.98019 15.7232 3.41058 15.9239 3.79981 15.7822L4.53502 15.5146C4.73205 15.9323 4.9631 16.3308 5.22461 16.7065L4.62411 17.2104C4.30681 17.4767 4.26542 17.9497 4.53167 18.267C4.79792 18.5843 5.27099 18.6257 5.58829 18.3595L6.1894 17.8551C6.51507 18.1783 6.86754 18.4745 7.2432 18.7401L6.85112 19.4192C6.64401 19.778 6.76692 20.2367 7.12564 20.4438C7.48436 20.6509 7.94305 20.528 8.15016 20.1692L8.54161 19.4912C8.9554 19.6826 9.38772 19.8407 9.83514 19.9621L9.6992 20.733C9.62727 21.1409 9.89965 21.5299 10.3076 21.6018C10.7155 21.6738 11.1045 21.4014 11.1764 20.9935L11.3126 20.2209C11.5395 20.2397 11.769 20.2492 12.0007 20.2492C12.2324 20.2492 12.4618 20.2397 12.6887 20.221L12.8249 20.9935C12.8968 21.4014 13.2858 21.6738 13.6937 21.6019C14.1016 21.53 14.374 21.141 14.3021 20.733L14.1662 19.9621C14.6136 19.8407 15.046 19.6826 15.4598 19.4912L15.8512 20.1691C16.0583 20.5278 16.517 20.6507 16.8757 20.4436C17.2344 20.2365 17.3573 19.7778 17.1502 19.4191L16.7582 18.7402C17.134 18.4745 17.4866 18.1781 17.8123 17.8548L18.4131 18.3589C18.7304 18.6251 19.2034 18.5837 19.4697 18.2664C19.7359 17.9491 19.6946 17.476 19.3772 17.2098L18.7771 16.7062C19.0385 16.3306 19.2694 15.9323 19.4664 15.5148L20.2015 15.7823C20.5907 15.924 21.0211 15.7233 21.1628 15.3341C21.3044 14.9449 21.1038 14.5145 20.7145 14.3728L19.9795 14.1053C20.095 13.6665 20.1753 13.2134 20.2171 12.7492H21.0007ZM18.3435 9.6906C18.3374 9.67397 18.332 9.65727 18.3272 9.64052C18.0593 8.92247 17.6728 8.26229 17.1913 7.68385C17.1846 7.67641 17.1779 7.66881 17.1714 7.66104C17.165 7.65343 17.1588 7.64574 17.1528 7.63796C16.6625 7.0594 16.0766 6.5645 15.4194 6.17773C15.4046 6.17046 15.3901 6.16267 15.3756 6.15434C15.3608 6.14579 15.3464 6.1368 15.3324 6.12741C14.6882 5.76109 13.9778 5.49774 13.2236 5.35972C13.2067 5.35791 13.1897 5.35551 13.1728 5.35252C13.1563 5.34962 13.1401 5.3462 13.1241 5.34229C12.7588 5.28109 12.3835 5.24924 12.0007 5.24924C11.6183 5.24924 11.2435 5.28097 10.8788 5.34194C10.8623 5.34601 10.8455 5.34956 10.8285 5.35256C10.8109 5.35566 10.7934 5.35812 10.7759 5.35995C10.005 5.50116 9.28044 5.77327 8.62548 6.15227C7.94757 6.54454 7.34445 7.05102 6.84231 7.6453C6.83827 7.65038 6.83415 7.65542 6.82995 7.66042C6.82783 7.66296 6.82568 7.66548 6.82353 7.66798C6.82127 7.6706 6.819 7.6732 6.81671 7.67578C6.33198 8.25635 5.94308 8.91946 5.67409 9.64088C5.66929 9.65756 5.66388 9.67419 5.65785 9.69075C5.65182 9.70732 5.64527 9.72355 5.63822 9.73942C5.38727 10.446 5.25073 11.2067 5.25073 11.9992C5.25073 12.7936 5.38795 13.5559 5.63997 14.2638C5.64626 14.2782 5.65215 14.2929 5.6576 14.3079C5.66305 14.3228 5.66799 14.3379 5.67243 14.3529C6.21997 15.8245 7.26613 17.0535 8.60555 17.8345C8.60934 17.8365 8.61311 17.8386 8.61688 17.8407C8.6198 17.8423 8.62272 17.844 8.62564 17.8457C8.63265 17.8497 8.63958 17.8539 8.64641 17.8581C9.3043 18.2356 10.0318 18.5054 10.8049 18.6436C10.8128 18.6448 10.8207 18.646 10.8285 18.6474C10.8358 18.6487 10.8431 18.6501 10.8504 18.6516C11.2242 18.7158 11.6086 18.7492 12.0007 18.7492C12.3929 18.7492 12.7773 18.7158 13.1512 18.6516C13.1584 18.6501 13.1655 18.6487 13.1728 18.6475C13.1805 18.6461 13.1883 18.6448 13.1961 18.6437C13.9675 18.5059 14.6935 18.237 15.3503 17.8609C15.3586 17.8556 15.3671 17.8505 15.3757 17.8455C15.3839 17.8408 15.3922 17.8362 15.4006 17.8318C16.07 17.4407 16.666 16.9377 17.163 16.3485L17.1716 16.3381L17.1808 16.3273C17.6679 15.7448 18.0587 15.0791 18.3285 14.3544C18.333 14.3389 18.3381 14.3234 18.3437 14.308C18.3493 14.2926 18.3554 14.2774 18.3619 14.2626C18.6137 13.5551 18.7507 12.7932 18.7507 11.9992C18.7507 11.2067 18.6141 10.446 18.3632 9.73955C18.3561 9.72358 18.3495 9.70727 18.3435 9.6906Z" fill="#0F172A"/>
</svg>
