<svg width="24" height="24" viewBox="0 0 24 24" fill="none" xmlns="http://www.w3.org/2000/svg">
<path fill-rule="evenodd" clip-rule="evenodd" d="M9.40136 3.0034C10.5558 1.00229 13.444 1.00229 14.5985 3.0034L21.9528 15.7509C23.1066 17.7509 21.6632 20.2501 19.3542 20.2501H4.64559C2.33661 20.2501 0.893183 17.7509 2.04703 15.7509L9.40136 3.0034ZM12.0001 8.25C12.4143 8.25 12.7501 8.58579 12.7501 9V12.75C12.7501 13.1642 12.4143 13.5 12.0001 13.5C11.5859 13.5 11.2501 13.1642 11.2501 12.75V9C11.2501 8.58579 11.5859 8.25 12.0001 8.25ZM12.0001 16.5C12.4143 16.5 12.7501 16.1642 12.7501 15.75C12.7501 15.3358 12.4143 15 12.0001 15C11.5859 15 11.2501 15.3358 11.2501 15.75C11.2501 16.1642 11.5859 16.5 12.0001 16.5Z" fill="#0F172A"/>
</svg>
