<svg width="24" height="24" viewBox="0 0 24 24" fill="none" xmlns="http://www.w3.org/2000/svg">
<path fill-rule="evenodd" clip-rule="evenodd" d="M12.0001 3.75C10.6233 3.75 9.34479 4.16143 8.27815 4.86788C7.93282 5.09661 7.46745 5.00207 7.23872 4.65674C7.01 4.3114 7.10453 3.84603 7.44987 3.61731C8.75453 2.7532 10.3197 2.25 12.0001 2.25C16.5564 2.25 20.2501 5.94365 20.2501 10.5C20.2501 13.5153 19.676 16.3983 18.63 19.0442C18.4777 19.4294 18.042 19.6182 17.6568 19.466C17.2716 19.3137 17.0828 18.8779 17.235 18.4927C18.2128 16.0196 18.7501 13.3235 18.7501 10.5C18.7501 6.77208 15.728 3.75 12.0001 3.75ZM6.15683 5.73863C6.50217 5.96735 6.59671 6.43272 6.36798 6.77806C5.66153 7.84469 5.2501 9.12316 5.2501 10.5C5.2501 12.1132 4.78665 13.6204 3.98471 14.893C3.76388 15.2434 3.30077 15.3485 2.95033 15.1276C2.5999 14.9068 2.49484 14.4437 2.71568 14.0933C3.37104 13.0533 3.7501 11.8222 3.7501 10.5C3.7501 8.81959 4.2533 7.25443 5.1174 5.94977C5.34613 5.60443 5.8115 5.5099 6.15683 5.73863ZM12.0001 7.5C10.3432 7.5 9.0001 8.84315 9.0001 10.5C9.0001 13.5997 7.82413 16.4266 5.89474 18.5556C5.61659 18.8626 5.14229 18.8859 4.83536 18.6077C4.52843 18.3296 4.50509 17.8553 4.78324 17.5484C6.4723 15.6845 7.5001 13.2132 7.5001 10.5C7.5001 8.01472 9.51482 6 12.0001 6C14.4854 6 16.5001 8.01472 16.5001 10.5C16.5001 11.0472 16.4779 11.5897 16.4335 12.1264C16.3994 12.5392 16.0371 12.8462 15.6243 12.8121C15.2115 12.778 14.9045 12.4157 14.9386 12.0029C14.9795 11.5078 15.0001 11.0066 15.0001 10.5C15.0001 8.84315 13.657 7.5 12.0001 7.5ZM12.0004 9.75C12.4146 9.75 12.7504 10.0858 12.7504 10.5C12.7504 14.4082 11.326 17.9855 8.96897 20.7384C8.69957 21.053 8.22611 21.0897 7.91147 20.8203C7.59684 20.5509 7.56016 20.0775 7.82956 19.7628C9.9627 17.2715 11.2504 14.0371 11.2504 10.5C11.2504 10.0858 11.5862 9.75 12.0004 9.75ZM15.2388 14.9331C15.6372 15.0467 15.8679 15.4617 15.7543 15.8601C15.1844 17.8576 14.3042 19.7239 13.1695 21.4035C12.9376 21.7467 12.4714 21.837 12.1281 21.6051C11.7849 21.3732 11.6947 20.907 11.9265 20.5637C12.9741 19.0132 13.7862 17.291 14.3118 15.4485C14.4255 15.0502 14.8405 14.8194 15.2388 14.9331Z" fill="#0F172A"/>
</svg>
