<svg width="24" height="24" viewBox="0 0 24 24" fill="none" xmlns="http://www.w3.org/2000/svg">
<path d="M21.7214 12.7518C21.7404 12.5037 21.75 12.253 21.75 12C21.75 10.4758 21.4003 9.03335 20.7767 7.74843C19.5396 8.92277 18.0671 9.85153 16.4374 10.4566C16.4789 10.9656 16.5 11.4803 16.5 12C16.5 13.1012 16.4051 14.1802 16.2229 15.2293C18.2163 14.7278 20.0717 13.8793 21.7214 12.7518Z" fill="#0F172A"/>
<path d="M14.6343 15.5501C14.874 14.4044 15 13.2169 15 12C15 11.6316 14.9885 11.2659 14.9657 10.9033C14.0141 11.13 13.021 11.25 12 11.25C10.979 11.25 9.98594 11.13 9.0343 10.9033C9.01155 11.2659 9 11.6316 9 12C9 13.2169 9.12601 14.4044 9.3657 15.5501C10.2246 15.6817 11.1043 15.75 12 15.75C12.8957 15.75 13.7754 15.6817 14.6343 15.5501Z" fill="#0F172A"/>
<path d="M9.77224 17.119C10.5028 17.2055 11.2462 17.25 12 17.25C12.7538 17.25 13.4972 17.2055 14.2278 17.119C13.714 18.7747 12.9575 20.3236 12 21.7241C11.0425 20.3236 10.286 18.7747 9.77224 17.119Z" fill="#0F172A"/>
<path d="M7.77706 15.2293C7.59493 14.1802 7.5 13.1012 7.5 12C7.5 11.4803 7.52114 10.9656 7.56261 10.4566C5.93286 9.85153 4.46039 8.92277 3.22333 7.74842C2.59973 9.03335 2.25 10.4758 2.25 12C2.25 12.253 2.25964 12.5037 2.27856 12.7518C3.92826 13.8793 5.78374 14.7278 7.77706 15.2293Z" fill="#0F172A"/>
<path d="M21.3561 14.7525C20.3404 18.2105 17.4597 20.8706 13.8776 21.5694C14.744 20.1124 15.4185 18.5279 15.8664 16.8509C17.8263 16.4401 19.6736 15.7232 21.3561 14.7525Z" fill="#0F172A"/>
<path d="M2.64395 14.7525C4.32642 15.7232 6.17372 16.4401 8.13356 16.8509C8.58146 18.5279 9.25602 20.1124 10.1224 21.5694C6.54027 20.8706 3.65964 18.2105 2.64395 14.7525Z" fill="#0F172A"/>
<path d="M13.8776 2.43063C16.3991 2.92253 18.5731 4.38628 19.9937 6.41607C18.9351 7.48492 17.6637 8.34259 16.2483 8.92024C15.862 6.5829 15.0435 4.3914 13.8776 2.43063Z" fill="#0F172A"/>
<path d="M12 2.27596C13.4287 4.36555 14.4097 6.78545 14.805 9.39752C13.9083 9.62764 12.9684 9.75001 12 9.75001C11.0316 9.75001 10.0917 9.62764 9.19503 9.39752C9.5903 6.78545 10.5713 4.36555 12 2.27596Z" fill="#0F172A"/>
<path d="M10.1224 2.43063C8.95648 4.3914 8.13795 6.5829 7.75171 8.92024C6.33629 8.34259 5.06489 7.48492 4.00635 6.41607C5.42689 4.38628 7.60085 2.92252 10.1224 2.43063Z" fill="#0F172A"/>
</svg>
