<svg width="24" height="24" viewBox="0 0 24 24" fill="none" xmlns="http://www.w3.org/2000/svg">
<path fill-rule="evenodd" clip-rule="evenodd" d="M2.24306 3.74272C2.65729 3.74272 2.99309 4.07852 2.99309 4.49276V11.2434H11.9933V4.49348C11.9933 4.07925 12.3291 3.74344 12.7433 3.74344C13.1575 3.74344 13.4933 4.07925 13.4933 4.49348V19.4949C13.4933 19.9092 13.1575 20.245 12.7433 20.245C12.3291 20.245 11.9933 19.9092 11.9933 19.4949V12.7435H2.99309V19.4942C2.99309 19.9084 2.65729 20.2442 2.24306 20.2442C1.82884 20.2442 1.49304 19.9084 1.49304 19.4942V4.49276C1.49304 4.07852 1.82884 3.74272 2.24306 3.74272ZM19.8478 8.7064C20.0917 8.83692 20.2439 9.09108 20.2439 9.3677V18.7436H21.7439C22.1581 18.7436 22.4939 19.0794 22.4939 19.4937C22.4939 19.9079 22.1581 20.2437 21.7439 20.2437H17.2439C16.8297 20.2437 16.4939 19.9079 16.4939 19.4937C16.4939 19.0794 16.8297 18.7436 17.2439 18.7436H18.7439V10.7692L17.66 11.4919C17.3153 11.7217 16.8497 11.6286 16.6199 11.2839C16.3901 10.9393 16.4832 10.4736 16.8279 10.2438L19.0778 8.74365C19.308 8.5902 19.6039 8.57588 19.8478 8.7064Z" fill="black"/>
</svg>
