<svg width="24" height="24" viewBox="0 0 24 24" fill="none" xmlns="http://www.w3.org/2000/svg">
<path fill-rule="evenodd" clip-rule="evenodd" d="M2.24585 3.74347C2.66006 3.74347 2.99585 4.07926 2.99585 4.49348V11.2442H11.9961V4.49348C11.9961 4.07926 12.3319 3.74347 12.7461 3.74347C13.1603 3.74347 13.4961 4.07926 13.4961 4.49348V19.4949C13.4961 19.9092 13.1603 20.2449 12.7461 20.2449C12.3319 20.2449 11.9961 19.9092 11.9961 19.4949V12.7442H2.99585V19.4949C2.99585 19.9092 2.66006 20.2449 2.24585 20.2449C1.83164 20.2449 1.49585 19.9092 1.49585 19.4949V4.49348C1.49585 4.07926 1.83164 3.74347 2.24585 3.74347ZM18.75 10.5003C18.0227 10.5003 17.3087 10.5547 16.6115 10.6595C16.2019 10.7212 15.8199 10.439 15.7583 10.0294C15.6967 9.61982 15.9788 9.23781 16.3884 9.17619C17.1592 9.06025 17.9478 9.00022 18.75 9.00022C19.1788 9.00022 19.6037 9.01737 20.0242 9.05105C21.1725 9.14305 22.1769 9.97383 22.3718 11.1661C22.4562 11.6822 22.5 12.2114 22.5 12.7503C22.5 13.8153 21.8238 14.677 20.9687 15.1045L18.0792 16.5493C17.571 16.8034 17.25 17.3228 17.25 17.891V18.7505H21.75C22.1642 18.7505 22.5 19.0862 22.5 19.5005C22.5 19.9147 22.1642 20.2505 21.75 20.2505H16.5C16.0858 20.2505 15.75 19.9147 15.75 19.5005V17.891C15.75 16.7547 16.392 15.7159 17.4083 15.2077L20.2979 13.7628C20.7459 13.5388 21 13.1423 21 12.7503C21 12.2928 20.9628 11.8445 20.8915 11.4081C20.8168 10.9514 20.4216 10.5877 19.9044 10.5463C19.5237 10.5158 19.1388 10.5003 18.75 10.5003Z" fill="black"/>
</svg>
