<svg width="24" height="24" viewBox="0 0 24 24" fill="none" xmlns="http://www.w3.org/2000/svg">
<path fill-rule="evenodd" clip-rule="evenodd" d="M12.7489 3.74272C13.1631 3.74272 13.4989 4.07853 13.4989 4.49276V19.4942C13.4989 19.9084 13.1631 20.2442 12.7489 20.2442C12.3347 20.2442 11.9989 19.9084 11.9989 19.4942V12.7442H2.99724V19.4949C2.99724 19.9092 2.66144 20.245 2.24721 20.245C1.83299 20.245 1.49719 19.9092 1.49719 19.4949V4.49349C1.49719 4.07925 1.83299 3.74345 2.24721 3.74345C2.66144 3.74345 2.99724 4.07925 2.99724 4.49349V11.2442H11.9989V4.49276C11.9989 4.07853 12.3347 3.74272 12.7489 3.74272Z" fill="black"/>
<path fill-rule="evenodd" clip-rule="evenodd" d="M18.75 10.5003C18.0228 10.5003 17.3087 10.5547 16.6116 10.6595C16.202 10.7212 15.82 10.439 15.7583 10.0294C15.6967 9.61982 15.9788 9.23781 16.3884 9.17619C17.1592 9.06025 17.9478 9.00022 18.75 9.00022C19.2414 9.00022 19.7277 9.02274 20.2079 9.06685C21.159 9.1542 22.1345 9.77181 22.3757 10.8601C22.4572 11.2279 22.5 11.6095 22.5 12.0003C22.5 12.9557 22.2442 13.8528 21.7975 14.6254C22.2442 15.3979 22.5 16.2951 22.5 17.2504C22.5 17.6412 22.4572 18.0228 22.3757 18.3906C22.1345 19.4789 21.159 20.0965 20.2079 20.1839C19.7277 20.228 19.2414 20.2505 18.75 20.2505C17.9478 20.2505 17.1592 20.1905 16.3884 20.0745C15.9788 20.0129 15.6967 19.6309 15.7583 19.2213C15.82 18.8117 16.202 18.5296 16.6116 18.5912C17.3087 18.696 18.0228 18.7505 18.75 18.7505C19.1955 18.7505 19.636 18.73 20.0707 18.6901C20.5381 18.6472 20.8442 18.3686 20.9112 18.0661C20.9692 17.8042 21 17.5313 21 17.2504C21 16.5664 20.8175 15.9267 20.4985 15.3754H18C17.5858 15.3754 17.25 15.0396 17.25 14.6254C17.25 14.2111 17.5858 13.8753 18 13.8753H20.4985C20.8175 13.3241 21 12.6843 21 12.0003C21 11.7194 20.9692 11.4465 20.9112 11.1846C20.8442 10.8821 20.5381 10.6035 20.0707 10.5606C19.636 10.5207 19.1955 10.5003 18.75 10.5003Z" fill="black"/>
</svg>
