<svg width="24" height="24" viewBox="0 0 24 24" fill="none" xmlns="http://www.w3.org/2000/svg">
<path fill-rule="evenodd" clip-rule="evenodd" d="M10.4973 3.7443C10.4973 3.33007 10.8331 2.99426 11.2473 2.99426H18.7472C19.1614 2.99426 19.4972 3.33007 19.4972 3.7443C19.4972 4.15854 19.1614 4.49434 18.7472 4.49434H15.4723L10.1152 19.4959H12.7473C13.1615 19.4959 13.4973 19.8317 13.4973 20.2459C13.4973 20.6601 13.1615 20.9959 12.7473 20.9959H5.24745C4.83323 20.9959 4.49744 20.6601 4.49744 20.2459C4.49744 19.8317 4.83323 19.4959 5.24745 19.4959H8.52238L13.8794 4.49434H11.2473C10.8331 4.49434 10.4973 4.15854 10.4973 3.7443Z" fill="black"/>
</svg>
