<svg width="24" height="24" viewBox="0 0 24 24" fill="none" xmlns="http://www.w3.org/2000/svg">
<path fill-rule="evenodd" clip-rule="evenodd" d="M19.8924 4.0901C18.4279 2.62551 16.0537 2.62551 14.5893 4.0901L10.0894 8.59053C10.0153 8.6646 9.94504 8.74091 9.87858 8.81921L14.844 13.7852C15.2099 12.5156 14.8922 11.0905 13.8925 10.0907C13.5816 9.77978 13.2311 9.53575 12.8578 9.35743C12.4841 9.17886 12.3258 8.7311 12.5044 8.35733C12.683 7.98356 13.1307 7.82532 13.5045 8.00389C14.0292 8.2546 14.5203 8.59702 14.9532 9.03001C16.554 10.6309 16.9043 13.007 16.0066 14.948L21.5211 20.4631C21.814 20.756 21.814 21.2309 21.5211 21.5238C21.2281 21.8167 20.7533 21.8167 20.4604 21.5238L2.46073 3.52202C2.16784 3.2291 2.16786 2.7542 2.46077 2.46131C2.75369 2.16841 3.22857 2.16843 3.52146 2.46135L8.8154 7.75591C8.88386 7.67895 8.95493 7.60356 9.02862 7.52986L13.5285 3.02943C15.5788 0.97896 18.9029 0.97896 20.9531 3.02943C23.0033 5.07986 23.0033 8.40424 20.9531 10.4547L19.1962 12.2118C18.9033 12.5047 18.4284 12.5048 18.1355 12.2119C17.8426 11.919 17.8425 11.4441 18.1354 11.1511L19.8924 9.394C21.3568 7.92938 21.3568 5.55472 19.8924 4.0901ZM5.84636 11.7733C6.13927 12.0661 6.13929 12.541 5.8464 12.834L4.08947 14.5911C2.62501 16.0557 2.62501 18.4304 4.08947 19.895C5.55389 21.3596 7.92815 21.3596 9.39257 19.895L12.5212 16.766C12.8141 16.4731 13.289 16.4731 13.5819 16.766C13.8748 17.0589 13.8748 17.5338 13.5819 17.8267L10.4533 20.9557C8.40307 23.0062 5.07897 23.0062 3.02873 20.9557C0.97854 18.9053 0.97854 15.5809 3.02873 13.5304L4.78567 11.7733C5.07856 11.4804 5.55344 11.4804 5.84636 11.7733ZM8.24749 12.0335C8.63819 11.8959 9.06646 12.1011 9.20406 12.4918C9.38415 13.0031 9.67864 13.4837 10.0894 13.8944C10.4002 14.2053 10.7508 14.4494 11.124 14.6277C11.4978 14.8063 11.656 15.254 11.4774 15.6278C11.2989 16.0016 10.8511 16.1598 10.4774 15.9812C9.9526 15.7305 9.46155 15.3881 9.02862 14.9551C8.45595 14.3824 8.04221 13.7085 7.78921 12.9901C7.65161 12.5994 7.85679 12.1711 8.24749 12.0335Z" fill="black"/>
</svg>
