<svg width="24" height="24" viewBox="0 0 24 24" fill="none" xmlns="http://www.w3.org/2000/svg">
<path fill-rule="evenodd" clip-rule="evenodd" d="M7.49197 5.99183C7.49197 5.57759 7.82776 5.24179 8.24199 5.24179H20.2418C20.656 5.24179 20.9918 5.57759 20.9918 5.99183C20.9918 6.40606 20.656 6.74187 20.2418 6.74187H8.24199C7.82776 6.74187 7.49197 6.40606 7.49197 5.99183Z" fill="black"/>
<path fill-rule="evenodd" clip-rule="evenodd" d="M7.49131 11.9946C7.49131 11.5803 7.8271 11.2445 8.24132 11.2445H20.2411C20.6553 11.2445 20.9911 11.5803 20.9911 11.9946C20.9911 12.4088 20.6553 12.7446 20.2411 12.7446H8.24132C7.8271 12.7446 7.49131 12.4088 7.49131 11.9946Z" fill="black"/>
<path fill-rule="evenodd" clip-rule="evenodd" d="M7.49197 17.9936C7.49197 17.5794 7.82776 17.2436 8.24199 17.2436H20.2418C20.656 17.2436 20.9918 17.5794 20.9918 17.9936C20.9918 18.4078 20.656 18.7436 20.2418 18.7436H8.24199C7.82776 18.7436 7.49197 18.4078 7.49197 17.9936Z" fill="black"/>
<path fill-rule="evenodd" clip-rule="evenodd" d="M2.24084 3.74516C2.24084 3.33092 2.57664 2.99512 2.99086 2.99512H4.11584C4.53006 2.99512 4.86586 3.33092 4.86586 3.74516V6.74548H5.24082C5.65504 6.74548 5.99084 7.08128 5.99084 7.49552C5.99084 7.90975 5.65504 8.24556 5.24082 8.24556H2.99086C2.57664 8.24556 2.24084 7.90975 2.24084 7.49552C2.24084 7.08128 2.57664 6.74548 2.99086 6.74548H3.36582V4.4952H2.99086C2.57664 4.4952 2.24084 4.15939 2.24084 3.74516Z" fill="black"/>
<path fill-rule="evenodd" clip-rule="evenodd" d="M2.7911 10.6019C2.49821 10.309 2.49821 9.83411 2.7911 9.54118C3.52331 8.80888 4.71048 8.80888 5.44269 9.54118C6.17491 10.2735 6.17491 11.4608 5.44269 12.1931L4.89345 12.7424L5.24203 12.7424C5.65623 12.7425 5.99198 13.0783 5.99194 13.4926C5.99191 13.9068 5.6561 14.2426 5.24189 14.2426L3.08292 14.2424C2.77959 14.2424 2.50615 14.0596 2.39008 13.7793C2.27402 13.499 2.33819 13.1764 2.55267 12.9619L4.38206 11.1323C4.5285 10.9859 4.5285 10.7484 4.38206 10.6019C4.23561 10.4555 3.99818 10.4555 3.85174 10.6019C3.55885 10.8949 3.08398 10.8949 2.7911 10.6019Z" fill="black"/>
<path fill-rule="evenodd" clip-rule="evenodd" d="M2.24084 15.7447C2.24084 15.3304 2.57664 14.9946 2.99086 14.9946H4.11574C5.15133 14.9946 5.99084 15.8342 5.99084 16.8698C5.99084 17.2915 5.85165 17.6807 5.6167 17.9939C5.85165 18.3071 5.99084 18.6963 5.99084 19.118C5.99084 20.1536 5.15133 20.9931 4.11574 20.9931H2.99086C2.57664 20.9931 2.24084 20.6573 2.24084 20.2431C2.24084 19.8288 2.57664 19.493 2.99086 19.493H4.11574C4.32288 19.493 4.4908 19.3251 4.4908 19.118C4.4908 18.9229 4.34191 18.7626 4.15159 18.7446C4.13967 18.7448 4.12772 18.7449 4.11574 18.7449H3.74085C3.32662 18.7449 2.99083 18.4091 2.99083 17.9949L2.99083 17.9939L2.99083 17.9929C2.99083 17.5786 3.32662 17.2428 3.74085 17.2428H4.11574C4.12772 17.2428 4.13967 17.2429 4.15159 17.2432C4.34191 17.2251 4.4908 17.0648 4.4908 16.8698C4.4908 16.6626 4.32288 16.4947 4.11574 16.4947H2.99086C2.57664 16.4947 2.24084 16.1589 2.24084 15.7447Z" fill="black"/>
</svg>
