<svg width="24" height="24" viewBox="0 0 24 24" fill="none" xmlns="http://www.w3.org/2000/svg">
<g clip-path="url(#clip0_164_397)">
<path d="M10.7812 3.46875C10.7812 2.79577 11.3259 2.25 12 2.25C17.3854 2.25 21.75 6.61465 21.75 12C21.75 13.7748 21.2739 15.443 20.4437 16.875C20.1085 17.4577 19.362 17.6596 18.745 17.3206C18.1966 16.9854 17.9985 16.239 18.3337 15.622C18.9545 14.5822 19.3125 13.333 19.3125 11.9657C19.3125 7.92861 16.0371 4.65322 12 4.65322C11.3259 4.65322 10.7812 4.14173 10.7812 3.43447V3.46875Z" fill="black"/>
<path opacity="0.4" d="M11.9657 4.6875C7.92861 4.6875 4.65322 7.92861 4.65322 12C4.65322 16.0371 7.92861 19.3125 11.9657 19.3125C14.6698 19.3125 17.0007 17.8843 18.2804 15.7477L18.2842 15.7515C18.0214 16.3189 18.2271 17.0007 18.745 17.3206C19.362 17.6596 20.1085 17.4577 20.4437 16.875C20.4513 16.8636 20.4589 16.8521 20.4627 16.8407C18.7831 19.7733 15.622 21.75 12 21.75C6.61465 21.75 2.25 17.3854 2.25 12C2.25 6.61465 6.61465 2.25 12 2.25C11.3259 2.25 10.7812 2.79577 10.7812 3.46875C10.7812 4.14173 11.3259 4.6875 12 4.6875H11.9657Z" fill="black"/>
</g>
<defs>
<clipPath id="clip0_164_397">
<rect width="21.9375" height="19.5" fill="white" transform="translate(1.03125 2.25)"/>
</clipPath>
</defs>
</svg>
