<svg width="24" height="24" viewBox="0 0 24 24" fill="none" xmlns="http://www.w3.org/2000/svg">
<path fill-rule="evenodd" clip-rule="evenodd" d="M5.99534 2.99426C6.40956 2.99426 6.74535 3.33007 6.74535 3.7443V11.245C6.74535 14.1449 9.09586 16.4956 11.9952 16.4956C14.8946 16.4956 17.2451 14.1449 17.2451 11.245V3.7443C17.2451 3.33007 17.5809 2.99426 17.9951 2.99426C18.4093 2.99426 18.7451 3.33007 18.7451 3.7443V11.245C18.7451 14.9732 15.7231 17.9956 11.9952 17.9956C8.26729 17.9956 5.24532 14.9732 5.24532 11.245V3.7443C5.24532 3.33007 5.58111 2.99426 5.99534 2.99426ZM2.99536 20.2459C2.99536 19.8317 3.33116 19.4959 3.74538 19.4959H20.2451C20.6593 19.4959 20.9951 19.8317 20.9951 20.2459C20.9951 20.6601 20.6593 20.9959 20.2451 20.9959H3.74538C3.33116 20.9959 2.99536 20.6601 2.99536 20.2459Z" fill="black"/>
</svg>
